<?xml version="1.0" encoding="utf-8"?>
<!-- Generator: Adobe Illustrator 16.0.4, SVG Export Plug-In . SVG Version: 6.00 Build 0)  -->
<!DOCTYPE svg PUBLIC "-//W3C//DTD SVG 1.1//EN" "http://www.w3.org/Graphics/SVG/1.1/DTD/svg11.dtd">
<svg version="1.1" xmlns="http://www.w3.org/2000/svg" xmlns:xlink="http://www.w3.org/1999/xlink" x="0px" y="0px" width="45px"
	 height="45px" viewBox="0 0 45 45" enable-background="new 0 0 45 45" xml:space="preserve">
<g id="skis1" display="none">
	<path display="inline" fill="none" stroke="#A2C880" stroke-width="0.4" stroke-miterlimit="10" d="M17.829,14.402"/>
	<line display="inline" fill="#A2C880" x1="14.885" y1="16.83" x2="15.303" y2="16.522"/>
	<path display="inline" fill="#A2C880" d="M19.095,14.533"/>
	<line display="inline" fill="#A2C880" x1="29.754" y1="16.83" x2="29.336" y2="16.522"/>
	<path display="inline" fill="#A2C880" d="M25.544,14.533"/>
	<path display="inline" fill="none" stroke="#A2C880" stroke-width="0.4" stroke-miterlimit="10" d="M34.05,4.562"/>
	<g display="inline">
		<g>
			<path fill="none" stroke="#C7E0AC" stroke-width="0.2366" stroke-miterlimit="10" d="M34.205,10.148"/>
		</g>
	</g>
	<g display="inline">
		<g>
			<path fill="none" stroke="#C7E0AC" stroke-width="0.2366" stroke-miterlimit="10" d="M10.662,10.148"/>
		</g>
	</g>
	<g display="inline">
		<path fill="#93278F" stroke="#662D91" stroke-width="0.9016" stroke-miterlimit="10" d="M14.022,0.867c0,0-2.228,0.677-2.11,6.803
			v34.949c0,0,2.178,2.772,4.046,0V7.669c-0.117-6.126-2.062-6.835-2.062-6.835"/>
	</g>
	<g display="inline">
		<path fill="#93278F" stroke="#662D91" stroke-width="0.9016" stroke-miterlimit="10" d="M31.272,0.867c0,0-2.228,0.677-2.11,6.803
			v34.949c0,0,2.178,2.772,4.046,0V7.669c-0.116-6.126-2.062-6.835-2.062-6.835"/>
	</g>
</g>
<g id="blue_skis" display="none">
	<path display="inline" fill="none" stroke="#A2C880" stroke-width="0.4" stroke-miterlimit="10" d="M17.829,14.402"/>
	<line display="inline" fill="#A2C880" x1="14.885" y1="16.83" x2="15.303" y2="16.522"/>
	<path display="inline" fill="#A2C880" d="M19.095,14.533"/>
	<line display="inline" fill="#A2C880" x1="29.754" y1="16.83" x2="29.336" y2="16.522"/>
	<path display="inline" fill="#A2C880" d="M25.544,14.533"/>
	<path display="inline" fill="none" stroke="#A2C880" stroke-width="0.4" stroke-miterlimit="10" d="M34.05,4.562"/>
	<g display="inline">
		<g>
			<path fill="none" stroke="#C7E0AC" stroke-width="0.2366" stroke-miterlimit="10" d="M34.205,10.148"/>
		</g>
	</g>
	<g display="inline">
		<g>
			<path fill="none" stroke="#C7E0AC" stroke-width="0.2366" stroke-miterlimit="10" d="M10.662,10.148"/>
		</g>
	</g>
	<path display="inline" fill="#38A6DC" d="M14.022,1.367c0,0-2.228,0.177-2.11,6.303v34.949c0,0,2.178,2.772,4.046,0V7.669
		c-0.117-6.126-2.062-6.335-2.062-6.335"/>
	<g display="inline">
		<path fill="#38A6DC" d="M31.272,1.367c0,0-2.228,0.177-2.11,6.303v34.949c0,0,2.178,2.772,4.046,0V7.669
			c-0.116-6.126-2.062-6.335-2.062-6.335"/>
	</g>
</g>
<g id="indigo_skis">
	<path fill="none" stroke="#A2C880" stroke-width="0.4" stroke-miterlimit="10" d="M17.829,14.402"/>
	<line fill="#A2C880" x1="14.885" y1="16.83" x2="15.303" y2="16.522"/>
	<path fill="#A2C880" d="M19.095,14.533"/>
	<line fill="#A2C880" x1="29.754" y1="16.83" x2="29.336" y2="16.522"/>
	<path fill="#A2C880" d="M25.544,14.533"/>
	<path fill="none" stroke="#A2C880" stroke-width="0.4" stroke-miterlimit="10" d="M34.05,4.562"/>
	<g>
		<g>
			<path fill="none" stroke="#C7E0AC" stroke-width="0.2366" stroke-miterlimit="10" d="M34.205,10.148"/>
		</g>
	</g>
	<g>
		<g>
			<path fill="none" stroke="#C7E0AC" stroke-width="0.2366" stroke-miterlimit="10" d="M10.662,10.148"/>
		</g>
	</g>
	<path fill="#1C1A2E" d="M13.855,1.367c0,0-2.228,0.177-2.11,6.303v34.949c0,0,2.178,2.772,4.046,0V7.669
		c-0.117-6.126-2.062-6.335-2.062-6.335"/>
	<g>
		<path fill="#1C1A2E" d="M31.106,1.367c0,0-2.228,0.177-2.11,6.303v34.949c0,0,2.178,2.772,4.046,0V7.669
			c-0.116-6.126-2.062-6.335-2.062-6.335"/>
	</g>
</g>
<g id="white_skis" display="none">
	<path display="inline" fill="none" stroke="#A2C880" stroke-width="0.4" stroke-miterlimit="10" d="M17.829,14.402"/>
	<line display="inline" fill="#A2C880" x1="14.885" y1="16.83" x2="15.303" y2="16.522"/>
	<path display="inline" fill="#A2C880" d="M19.095,14.533"/>
	<line display="inline" fill="#A2C880" x1="29.754" y1="16.83" x2="29.336" y2="16.522"/>
	<path display="inline" fill="#A2C880" d="M25.544,14.533"/>
	<path display="inline" fill="none" stroke="#A2C880" stroke-width="0.4" stroke-miterlimit="10" d="M34.05,4.562"/>
	<g display="inline">
		<g>
			<path fill="none" stroke="#C7E0AC" stroke-width="0.2366" stroke-miterlimit="10" d="M34.205,10.148"/>
		</g>
	</g>
	<g display="inline">
		<g>
			<path fill="none" stroke="#C7E0AC" stroke-width="0.2366" stroke-miterlimit="10" d="M10.662,10.148"/>
		</g>
	</g>
	<path display="inline" fill="#F2F2F2" d="M14.022,1.367c0,0-2.228,0.177-2.11,6.303v34.949c0,0,2.178,2.772,4.046,0V7.669
		c-0.117-6.126-2.062-6.335-2.062-6.335"/>
	<g display="inline">
		<path fill="#F2F2F2" d="M31.272,1.367c0,0-2.228,0.177-2.11,6.303v34.949c0,0,2.178,2.772,4.046,0V7.669
			c-0.116-6.126-2.062-6.335-2.062-6.335"/>
	</g>
</g>
<g id="orange_skis" display="none">
	<path display="inline" fill="none" stroke="#A2C880" stroke-width="0.4" stroke-miterlimit="10" d="M17.829,14.402"/>
	<line display="inline" fill="#A2C880" x1="14.885" y1="16.83" x2="15.303" y2="16.522"/>
	<path display="inline" fill="#A2C880" d="M19.095,14.533"/>
	<line display="inline" fill="#A2C880" x1="29.754" y1="16.83" x2="29.336" y2="16.522"/>
	<path display="inline" fill="#A2C880" d="M25.544,14.533"/>
	<path display="inline" fill="none" stroke="#A2C880" stroke-width="0.4" stroke-miterlimit="10" d="M34.05,4.562"/>
	<g display="inline">
		<g>
			<path fill="none" stroke="#C7E0AC" stroke-width="0.2366" stroke-miterlimit="10" d="M34.205,10.148"/>
		</g>
	</g>
	<g display="inline">
		<g>
			<path fill="none" stroke="#C7E0AC" stroke-width="0.2366" stroke-miterlimit="10" d="M10.662,10.148"/>
		</g>
	</g>
	<path display="inline" fill="#FBB03B" d="M14.022,1.367c0,0-2.228,0.177-2.11,6.303v34.949c0,0,2.178,2.772,4.046,0V7.669
		c-0.117-6.126-2.062-6.335-2.062-6.335"/>
	<g display="inline">
		<path fill="#FBB03B" d="M31.272,1.367c0,0-2.228,0.177-2.11,6.303v34.949c0,0,2.178,2.772,4.046,0V7.669
			c-0.116-6.126-2.062-6.335-2.062-6.335"/>
	</g>
</g>
<g id="blue_skis_1_" display="none">
	<path display="inline" fill="none" stroke="#A2C880" stroke-width="0.4" stroke-miterlimit="10" d="M17.829,14.402"/>
	<line display="inline" fill="#A2C880" x1="14.885" y1="16.83" x2="15.303" y2="16.522"/>
	<path display="inline" fill="#A2C880" d="M19.095,14.533"/>
	<line display="inline" fill="#A2C880" x1="29.754" y1="16.83" x2="29.336" y2="16.522"/>
	<path display="inline" fill="#A2C880" d="M25.544,14.533"/>
	<path display="inline" fill="none" stroke="#A2C880" stroke-width="0.4" stroke-miterlimit="10" d="M34.05,4.562"/>
	<g display="inline">
		<g>
			<path fill="none" stroke="#C7E0AC" stroke-width="0.2366" stroke-miterlimit="10" d="M34.205,10.148"/>
		</g>
	</g>
	<g display="inline">
		<g>
			<path fill="none" stroke="#C7E0AC" stroke-width="0.2366" stroke-miterlimit="10" d="M10.662,10.148"/>
		</g>
	</g>
	<path display="inline" fill="#38A6DC" d="M14.022,1.367c0,0-2.228,0.177-2.11,6.303v34.949c0,0,2.178,2.772,4.046,0V7.669
		c-0.117-6.126-2.062-6.335-2.062-6.335"/>
	<g display="inline">
		<path fill="#38A6DC" d="M31.272,1.367c0,0-2.228,0.177-2.11,6.303v34.949c0,0,2.178,2.772,4.046,0V7.669
			c-0.116-6.126-2.062-6.335-2.062-6.335"/>
	</g>
</g>
<g id="white_x2F_blue__turtle" display="none">
	<path display="inline" fill="#F2F2F2" stroke="#38A6DC" stroke-width="1.5" stroke-miterlimit="10" d="M20.071,14.002
		c1.048-3.341-0.434-5.89-0.434-5.89c0.166,0.099-1.743-1.642-1.315-3.514C18.77,2.635,22.3,1.315,22.3,1.315
		s2.999,0.788,3.959,2.89s-1.051,3.691-1.271,3.912c0,0-0.079,0.228-0.183,0.604c-0.035,0.128-0.073,0.273-0.111,0.433
		c-0.313,1.292-0.663,3.508,0.139,4.931"/>
	<path display="inline" fill="#F2F2F2" stroke="#38A6DC" stroke-width="1.5" stroke-miterlimit="10" d="M13.501,32.946
		c0,0-1.134,1.152-1.606,2.804c-0.327,1.144-0.157,2.62,0.192,3.734c0,0,1.07,0.341,1.415-0.638c0,0,0.763-0.213,0.703-0.808
		c0,0,0.833,0.17,0.918-0.681c0.084-0.851,0.374-0.895,0.374-0.895"/>
	<path display="inline" fill="#F2F2F2" stroke="#38A6DC" stroke-width="1.5" stroke-miterlimit="10" d="M31.215,32.612
		c0,0,1.135,1.211,1.607,2.945c0.326,1.202,0.156,2.753-0.192,3.924c0,0-1.069,0.358-1.415-0.67c0,0-0.762-0.224-0.703-0.849
		c0,0-0.832,0.179-0.918-0.715c-0.084-0.894-0.374-0.94-0.374-0.94"/>
	<path display="inline" fill="#F2F2F2" stroke="#38A6DC" stroke-width="1.5" stroke-miterlimit="10" d="M15.75,16.833
		c0,0-4.037-0.912-6.272-0.001c0,0-2.184,1.795-3.488,4.573c-1.304,2.778-1.672,5.624-1.686,5.799c0,0-0.181,1.326,0.218,1.991
		c0,0,0.271,0.771,0.811,0.788c0,0,0.81,0.329,1.667-1.57c0,0,0.798-0.896,1.115-0.977c0,0,0.759-0.683,1.233-1.528
		c0,0,0.393-0.864,1.281-1.127c0,0,0.692-0.291,1.192-1.336c0,0,1.905-0.482,2.011-0.815c0,0,0.083-2.085,0.522-2.77"/>
	<path display="inline" fill="#F2F2F2" stroke="#38A6DC" stroke-width="1.5" stroke-miterlimit="10" d="M29.25,16.833
		c0,0,4.062-0.912,6.297-0.001c0,0,2.184,1.795,3.488,4.573c1.305,2.778,1.672,5.624,1.686,5.799c0,0,0.181,1.326-0.218,1.991
		c0,0-0.271,0.771-0.811,0.788c0,0-0.81,0.329-1.667-1.57c0,0-0.799-0.896-1.115-0.977c0,0-0.76-0.683-1.233-1.528
		c0,0-0.394-0.864-1.281-1.127c0,0-0.692-0.291-1.192-1.336c0,0-1.904-0.482-2.011-0.815c0,0-0.083-2.085-0.522-2.77"/>
	<path display="inline" fill="#F2F2F2" stroke="#38A6DC" stroke-width="1.5" stroke-miterlimit="10" d="M20.612,39.122l-0.675-0.185
		c0,0,0.912,3,2.3,2.938s2.251-2.787,2.251-2.787"/>
	<g display="inline">
		<path fill="#38A6DC" stroke="#38A6DC" stroke-miterlimit="10" d="M11.529,27.122c1.292,8.792,5.583,11.667,9.083,12.5
			c0,0,2.071,0.563,3.775,0c3.416-1.13,7.791-3.708,9.084-12.5"/>
		<path fill="#38A6DC" stroke="#38A6DC" stroke-miterlimit="10" d="M11.529,27.122c-1.292-8.792,6.708-12.958,6.708-12.958
			c-0.643,0.374,3.453-2.621,8.525,0c0,0,8,4.166,6.709,12.958"/>
	</g>
	<g display="inline">
		<polygon fill="#F2F2F2" points="19.688,27.9 17.537,23.66 19.75,19.188 25.5,19 26.938,23.544 24.881,27.9 		"/>
	</g>
	<path display="inline" fill="#F2F2F2" d="M32.583,24.292c0.375-3.792-4.5-8.083-4.5-8.083l-2,2.542l1.979,4.312"/>
	<path display="inline" fill="#F2F2F2" d="M12.104,24.292c-0.375-3.792,4.5-8.083,4.5-8.083l2,2.542l-1.979,4.312"/>
	<path display="inline" fill="#F2F2F2" d="M19.875,29.25h5.069c0,0,0.747,4.892-2.821,4.938
		C18.556,34.233,19.875,29.25,19.875,29.25z"/>
	<path display="inline" fill="#F2F2F2" d="M27.875,24.459l-1.792,3.692c0,0,0.271,1.474,0,2.474s4.75,0.793,5,0.709
		s1.75-4.334,1.167-5.959"/>
	<path display="inline" fill="#F2F2F2" d="M16.312,25l1.098,0.884l0.69,1.27l0.733,1.347c0,0-0.524,1.43-0.271,2.366
		s-4.691,0.087-4.925,0.009c-0.234-0.079-1.997-3.919-1.451-5.441"/>
	<path display="inline" fill="#F2F2F2" d="M25.573,32.625c0,0,0.734-0.842,5.359-0.259c0,0-2.942,5.717-7.225,6.384
		c0,0-0.875-2.042-0.458-3.042"/>
	<path display="inline" fill="#F2F2F2" d="M18.997,32.625c0,0-0.734-0.842-5.359-0.259c0,0,2.942,5.717,7.225,6.384
		c0,0,0.875-2.042,0.458-3.042"/>
	<path display="inline" fill="#06334B" d="M16.802,23.372"/>
	<g display="inline" opacity="0.7">
		<g>
			<path fill="none" stroke="#C7E0AC" stroke-width="0.4" stroke-miterlimit="10" d="M40.125,27.875"/>
		</g>
	</g>
	<g display="inline" opacity="0.9">
		<path fill="#F2F2F2" d="M22,41"/>
		<g>
			<path fill="none" stroke="#C7E0AC" stroke-width="0.4" stroke-miterlimit="10" d="M22,41"/>
		</g>
	</g>
	<g display="inline">
		<g>
			<path fill="none" stroke="#C7E0AC" stroke-width="0.4" stroke-miterlimit="10" d="M13,37.062"/>
		</g>
	</g>
	<g display="inline">
		<g>
			<path fill="none" stroke="#C7E0AC" stroke-width="0.2366" stroke-miterlimit="10" d="M23.826,6.305"/>
		</g>
	</g>
	<path display="inline" fill="none" stroke="#A2C880" stroke-width="0.4" stroke-miterlimit="10" d="M22.5,0.625"/>
	<path display="inline" fill="#231F20" d="M21.014,3.291c0,0-1.151,0.479-1.072,1.072c0.081,0.596,0.873,0.397,1.072,0.277
		c0.198-0.119,0.794-0.555,0.636-0.993c-0.161-0.435-0.161-0.435-0.161-0.435"/>
	<path display="inline" fill="#231F20" d="M23.619,3.291c0,0,1.15,0.479,1.072,1.072c-0.078,0.596-0.873,0.397-1.072,0.277
		c-0.199-0.119-0.795-0.555-0.637-0.993c0.162-0.435,0.162-0.435,0.162-0.435"/>
	<g display="inline">
		<g>
			<path fill="none" stroke="#C7E0AC" stroke-width="0.2366" stroke-miterlimit="10" d="M22.04,4.491"/>
		</g>
	</g>
	<g display="inline">
		<g>
			<path fill="none" stroke="#C7E0AC" stroke-width="0.2366" stroke-miterlimit="10" d="M22.631,4.176"/>
		</g>
	</g>
	<g display="inline">
		<g>
			<path fill="none" stroke="#C7E0AC" stroke-width="0.2366" stroke-miterlimit="10" d="M25.036,4.491"/>
		</g>
	</g>
	<g display="inline">
		<g>
			<path fill="none" stroke="#C7E0AC" stroke-width="0.2366" stroke-miterlimit="10" d="M25.47,5.359"/>
		</g>
	</g>
	<path display="inline" fill="#F2F2F2" d="M25.607,18.083l1.629-2.458c0,0-2.021-1.792-4.7-1.625h-0.299
		c-2.68-0.167-4.701,1.625-4.701,1.625l1.63,2.458C19.167,18.083,20.84,17.417,25.607,18.083z"/>
</g>
<g id="white_x2F_indigo1" display="none">
	<path display="inline" fill="#435678" stroke="#435678" stroke-width="1.5" stroke-miterlimit="10" d="M20.071,14.002
		c1.048-3.341-0.434-5.89-0.434-5.89c0.166,0.099-1.743-1.642-1.315-3.514C18.77,2.635,22.3,1.315,22.3,1.315
		s2.999,0.788,3.959,2.89s-1.051,3.691-1.271,3.912c0,0-0.079,0.228-0.183,0.604c-0.035,0.128-0.073,0.273-0.111,0.433
		c-0.313,1.292-0.663,3.508,0.139,4.931"/>
	<path display="inline" fill="#435678" d="M13.501,32.946c0,0-1.134,1.152-1.606,2.804c-0.327,1.144-0.157,2.62,0.192,3.734
		c0,0,1.07,0.341,1.415-0.638c0,0,0.763-0.213,0.703-0.808c0,0,0.833,0.17,0.918-0.681c0.084-0.851,0.374-0.895,0.374-0.895"/>
	<path display="inline" fill="#435678" d="M31.215,32.612c0,0,1.135,1.211,1.607,2.945c0.326,1.202,0.156,2.753-0.192,3.924
		c0,0-1.069,0.358-1.415-0.67c0,0-0.762-0.224-0.703-0.849c0,0-0.832,0.179-0.918-0.715c-0.084-0.894-0.374-0.94-0.374-0.94"/>
	<path display="inline" fill="#435678" d="M15.75,16.833c0,0-4.037-0.912-6.272-0.001c0,0-2.184,1.795-3.488,4.573
		c-1.304,2.778-1.672,5.624-1.686,5.799c0,0-0.181,1.326,0.218,1.991c0,0,0.271,0.771,0.811,0.788c0,0,0.81,0.329,1.667-1.57
		c0,0,0.798-0.896,1.115-0.977c0,0,0.759-0.683,1.233-1.528c0,0,0.393-0.864,1.281-1.127c0,0,0.692-0.291,1.192-1.336
		c0,0,1.905-0.482,2.011-0.815c0,0,0.083-2.085,0.522-2.77"/>
	<path display="inline" fill="#435678" d="M29.25,16.833c0,0,4.062-0.912,6.297-0.001c0,0,2.184,1.795,3.488,4.573
		c1.305,2.778,1.672,5.624,1.686,5.799c0,0,0.181,1.326-0.218,1.991c0,0-0.271,0.771-0.811,0.788c0,0-0.81,0.329-1.667-1.57
		c0,0-0.799-0.896-1.115-0.977c0,0-0.76-0.683-1.233-1.528c0,0-0.394-0.864-1.281-1.127c0,0-0.692-0.291-1.192-1.336
		c0,0-1.904-0.482-2.011-0.815c0,0-0.083-2.085-0.522-2.77"/>
	<path display="inline" fill="#435678" d="M20.612,39.122l-0.675-0.185c0,0,0.912,3,2.3,2.938s2.251-2.787,2.251-2.787"/>
	<g display="inline">
		<path fill="#435678" stroke="#435678" stroke-miterlimit="10" d="M11.529,27.122c1.292,8.792,5.583,11.667,9.083,12.5
			c0,0,2.071,0.563,3.775,0c3.416-1.13,7.791-3.708,9.084-12.5"/>
		<path fill="#435678" stroke="#435678" stroke-miterlimit="10" d="M11.529,27.122c-1.292-8.792,6.708-12.958,6.708-12.958
			c-0.643,0.374,3.453-2.621,8.525,0c0,0,8,4.166,6.709,12.958"/>
	</g>
	<g display="inline">
		<polygon fill="#F2F2F2" points="19.688,27.9 17.537,23.66 19.75,19.188 25.5,19 26.938,23.544 24.881,27.9 		"/>
	</g>
	<path display="inline" fill="#F2F2F2" d="M32.583,24.292c0.375-3.792-4.5-8.083-4.5-8.083l-2,2.542l1.979,4.312"/>
	<path display="inline" fill="#F2F2F2" d="M12.104,24.292c-0.375-3.792,4.5-8.083,4.5-8.083l2,2.542l-1.979,4.312"/>
	<path display="inline" fill="#F2F2F2" d="M19.875,29.25h5.069c0,0,0.747,4.892-2.821,4.938
		C18.556,34.233,19.875,29.25,19.875,29.25z"/>
	<path display="inline" fill="#F2F2F2" d="M27.875,24.459l-1.792,3.692c0,0,0.271,1.474,0,2.474s4.75,0.793,5,0.709
		s1.75-4.334,1.167-5.959"/>
	<path display="inline" fill="#F2F2F2" d="M16.312,25l1.098,0.884l0.69,1.27l0.733,1.347c0,0-0.524,1.43-0.271,2.366
		s-4.691,0.087-4.925,0.009c-0.234-0.079-1.997-3.919-1.451-5.441"/>
	<path display="inline" fill="#F2F2F2" d="M25.573,32.625c0,0,0.734-0.842,5.359-0.259c0,0-2.942,5.717-7.225,6.384
		c0,0-0.875-2.042-0.458-3.042"/>
	<path display="inline" fill="#F2F2F2" d="M18.997,32.625c0,0-0.734-0.842-5.359-0.259c0,0,2.942,5.717,7.225,6.384
		c0,0,0.875-2.042,0.458-3.042"/>
	<path display="inline" fill="#06334B" d="M16.802,23.372"/>
	<g display="inline" opacity="0.7">
		<g>
			<path fill="none" stroke="#C7E0AC" stroke-width="0.4" stroke-miterlimit="10" d="M40.125,27.875"/>
		</g>
	</g>
	<g display="inline" opacity="0.9">
		<path fill="#F2F2F2" d="M22,41"/>
		<g>
			<path fill="none" stroke="#C7E0AC" stroke-width="0.4" stroke-miterlimit="10" d="M22,41"/>
		</g>
	</g>
	<g display="inline">
		<g>
			<path fill="none" stroke="#C7E0AC" stroke-width="0.4" stroke-miterlimit="10" d="M13,37.062"/>
		</g>
	</g>
	<g display="inline">
		<g>
			<path fill="none" stroke="#C7E0AC" stroke-width="0.2366" stroke-miterlimit="10" d="M23.826,6.305"/>
		</g>
	</g>
	<path display="inline" fill="none" stroke="#A2C880" stroke-width="0.4" stroke-miterlimit="10" d="M22.5,0.625"/>
	<path display="inline" fill="#F2F2F2" d="M21.014,3.291c0,0-1.151,0.479-1.072,1.072c0.081,0.596,0.873,0.397,1.072,0.277
		c0.198-0.119,0.794-0.555,0.636-0.993c-0.161-0.435-0.161-0.435-0.161-0.435"/>
	<path display="inline" fill="#F2F2F2" d="M23.619,3.291c0,0,1.15,0.479,1.072,1.072c-0.078,0.596-0.873,0.397-1.072,0.277
		c-0.199-0.119-0.795-0.555-0.637-0.993c0.162-0.435,0.162-0.435,0.162-0.435"/>
	<g display="inline">
		<g>
			<path fill="none" stroke="#C7E0AC" stroke-width="0.2366" stroke-miterlimit="10" d="M22.04,4.491"/>
		</g>
	</g>
	<g display="inline">
		<g>
			<path fill="none" stroke="#C7E0AC" stroke-width="0.2366" stroke-miterlimit="10" d="M22.631,4.176"/>
		</g>
	</g>
	<g display="inline">
		<g>
			<path fill="none" stroke="#C7E0AC" stroke-width="0.2366" stroke-miterlimit="10" d="M25.036,4.491"/>
		</g>
	</g>
	<g display="inline">
		<g>
			<path fill="none" stroke="#C7E0AC" stroke-width="0.2366" stroke-miterlimit="10" d="M25.47,5.359"/>
		</g>
	</g>
	<path display="inline" fill="#F2F2F2" d="M25.607,18.083l1.629-2.458c0,0-2.021-1.792-4.7-1.625h-0.299
		c-2.68-0.167-4.701,1.625-4.701,1.625l1.63,2.458C19.167,18.083,20.84,17.417,25.607,18.083z"/>
</g>
<g id="white_x2F_indigo2" display="none">
	<path display="inline" fill="#58729E" stroke="#58729E" stroke-width="1.5" stroke-miterlimit="10" d="M20.071,14.002
		c1.048-3.341-0.434-5.89-0.434-5.89c0.166,0.099-1.743-1.642-1.315-3.514C18.77,2.635,22.3,1.315,22.3,1.315
		s2.999,0.788,3.959,2.89s-1.051,3.691-1.271,3.912c0,0-0.079,0.228-0.183,0.604c-0.035,0.128-0.073,0.273-0.111,0.433
		c-0.313,1.292-0.663,3.508,0.139,4.931"/>
	<path display="inline" fill="#58729E" d="M13.501,32.946c0,0-1.134,1.152-1.606,2.804c-0.327,1.144-0.157,2.62,0.192,3.734
		c0,0,1.07,0.341,1.415-0.638c0,0,0.763-0.213,0.703-0.808c0,0,0.833,0.17,0.918-0.681c0.084-0.851,0.374-0.895,0.374-0.895"/>
	<path display="inline" fill="#58729E" d="M31.215,32.612c0,0,1.135,1.211,1.607,2.945c0.326,1.202,0.156,2.753-0.192,3.924
		c0,0-1.069,0.358-1.415-0.67c0,0-0.762-0.224-0.703-0.849c0,0-0.832,0.179-0.918-0.715c-0.084-0.894-0.374-0.94-0.374-0.94"/>
	<path display="inline" fill="#58729E" d="M15.75,16.833c0,0-4.037-0.912-6.272-0.001c0,0-2.184,1.795-3.488,4.573
		c-1.304,2.778-1.672,5.624-1.686,5.799c0,0-0.181,1.326,0.218,1.991c0,0,0.271,0.771,0.811,0.788c0,0,0.81,0.329,1.667-1.57
		c0,0,0.798-0.896,1.115-0.977c0,0,0.759-0.683,1.233-1.528c0,0,0.393-0.864,1.281-1.127c0,0,0.692-0.291,1.192-1.336
		c0,0,1.905-0.482,2.011-0.815c0,0,0.083-2.085,0.522-2.77"/>
	<path display="inline" fill="#58729E" d="M29.25,16.833c0,0,4.062-0.912,6.297-0.001c0,0,2.184,1.795,3.488,4.573
		c1.305,2.778,1.672,5.624,1.686,5.799c0,0,0.181,1.326-0.218,1.991c0,0-0.271,0.771-0.811,0.788c0,0-0.81,0.329-1.667-1.57
		c0,0-0.799-0.896-1.115-0.977c0,0-0.76-0.683-1.233-1.528c0,0-0.394-0.864-1.281-1.127c0,0-0.692-0.291-1.192-1.336
		c0,0-1.904-0.482-2.011-0.815c0,0-0.083-2.085-0.522-2.77"/>
	<path display="inline" fill="#58729E" d="M20.612,39.122l-0.675-0.185c0,0,0.912,3,2.3,2.938s2.251-2.787,2.251-2.787"/>
	<g display="inline">
		<path fill="#58729E" stroke="#58729E" stroke-miterlimit="10" d="M11.529,27.122c1.292,8.792,5.583,11.667,9.083,12.5
			c0,0,2.071,0.563,3.775,0c3.416-1.13,7.791-3.708,9.084-12.5"/>
		<path fill="#58729E" stroke="#58729E" stroke-miterlimit="10" d="M11.529,27.122c-1.292-8.792,6.708-12.958,6.708-12.958
			c-0.643,0.374,3.453-2.621,8.525,0c0,0,8,4.166,6.709,12.958"/>
	</g>
	<g display="inline">
		<polygon fill="#F2F2F2" points="19.688,27.9 17.537,23.66 19.75,19.188 25.5,19 26.938,23.544 24.881,27.9 		"/>
	</g>
	<path display="inline" fill="#F2F2F2" d="M32.583,24.292c0.375-3.792-4.5-8.083-4.5-8.083l-2,2.542l1.979,4.312"/>
	<path display="inline" fill="#F2F2F2" d="M12.104,24.292c-0.375-3.792,4.5-8.083,4.5-8.083l2,2.542l-1.979,4.312"/>
	<path display="inline" fill="#F2F2F2" d="M19.875,29.25h5.069c0,0,0.747,4.892-2.821,4.938
		C18.556,34.233,19.875,29.25,19.875,29.25z"/>
	<path display="inline" fill="#F2F2F2" d="M27.875,24.459l-1.792,3.692c0,0,0.271,1.474,0,2.474s4.75,0.793,5,0.709
		s1.75-4.334,1.167-5.959"/>
	<path display="inline" fill="#F2F2F2" d="M16.312,25l1.098,0.884l0.69,1.27l0.733,1.347c0,0-0.524,1.43-0.271,2.366
		s-4.691,0.087-4.925,0.009c-0.234-0.079-1.997-3.919-1.451-5.441"/>
	<path display="inline" fill="#F2F2F2" d="M25.573,32.625c0,0,0.734-0.842,5.359-0.259c0,0-2.942,5.717-7.225,6.384
		c0,0-0.875-2.042-0.458-3.042"/>
	<path display="inline" fill="#F2F2F2" d="M18.997,32.625c0,0-0.734-0.842-5.359-0.259c0,0,2.942,5.717,7.225,6.384
		c0,0,0.875-2.042,0.458-3.042"/>
	<path display="inline" fill="#06334B" d="M16.802,23.372"/>
	<g display="inline" opacity="0.7">
		<g>
			<path fill="none" stroke="#C7E0AC" stroke-width="0.4" stroke-miterlimit="10" d="M40.125,27.875"/>
		</g>
	</g>
	<g display="inline" opacity="0.9">
		<path fill="#F2F2F2" d="M22,41"/>
		<g>
			<path fill="none" stroke="#C7E0AC" stroke-width="0.4" stroke-miterlimit="10" d="M22,41"/>
		</g>
	</g>
	<g display="inline">
		<g>
			<path fill="none" stroke="#C7E0AC" stroke-width="0.4" stroke-miterlimit="10" d="M13,37.062"/>
		</g>
	</g>
	<g display="inline">
		<g>
			<path fill="none" stroke="#C7E0AC" stroke-width="0.2366" stroke-miterlimit="10" d="M23.826,6.305"/>
		</g>
	</g>
	<path display="inline" fill="none" stroke="#A2C880" stroke-width="0.4" stroke-miterlimit="10" d="M22.5,0.625"/>
	<path display="inline" fill="#F2F2F2" d="M21.014,3.291c0,0-1.151,0.479-1.072,1.072c0.081,0.596,0.873,0.397,1.072,0.277
		c0.198-0.119,0.794-0.555,0.636-0.993c-0.161-0.435-0.161-0.435-0.161-0.435"/>
	<path display="inline" fill="#F2F2F2" d="M23.619,3.291c0,0,1.15,0.479,1.072,1.072c-0.078,0.596-0.873,0.397-1.072,0.277
		c-0.199-0.119-0.795-0.555-0.637-0.993c0.162-0.435,0.162-0.435,0.162-0.435"/>
	<g display="inline">
		<g>
			<path fill="none" stroke="#C7E0AC" stroke-width="0.2366" stroke-miterlimit="10" d="M22.04,4.491"/>
		</g>
	</g>
	<g display="inline">
		<g>
			<path fill="none" stroke="#C7E0AC" stroke-width="0.2366" stroke-miterlimit="10" d="M22.631,4.176"/>
		</g>
	</g>
	<g display="inline">
		<g>
			<path fill="none" stroke="#C7E0AC" stroke-width="0.2366" stroke-miterlimit="10" d="M25.036,4.491"/>
		</g>
	</g>
	<g display="inline">
		<g>
			<path fill="none" stroke="#C7E0AC" stroke-width="0.2366" stroke-miterlimit="10" d="M25.47,5.359"/>
		</g>
	</g>
	<path display="inline" fill="#F2F2F2" d="M25.607,18.083l1.629-2.458c0,0-2.021-1.792-4.7-1.625h-0.299
		c-2.68-0.167-4.701,1.625-4.701,1.625l1.63,2.458C19.167,18.083,20.84,17.417,25.607,18.083z"/>
</g>
<g id="ice_blue" display="none">
	<path display="inline" fill="#94E1F2" stroke="#94E1F2" stroke-width="1.5" stroke-miterlimit="10" d="M20.071,14.002
		c1.048-3.341-0.434-5.89-0.434-5.89c0.166,0.099-1.743-1.642-1.315-3.514C18.77,2.635,22.3,1.315,22.3,1.315
		s2.999,0.788,3.959,2.89s-1.051,3.691-1.271,3.912c0,0-0.079,0.228-0.183,0.604c-0.035,0.128-0.073,0.273-0.111,0.433
		c-0.313,1.292-0.663,3.508,0.139,4.931"/>
	<path display="inline" fill="#94E1F2" d="M13.501,32.946c0,0-1.134,1.152-1.606,2.804c-0.327,1.144-0.157,2.62,0.192,3.734
		c0,0,1.07,0.341,1.415-0.638c0,0,0.763-0.213,0.703-0.808c0,0,0.833,0.17,0.918-0.681c0.084-0.851,0.374-0.895,0.374-0.895"/>
	<path display="inline" fill="#94E1F2" d="M31.215,32.612c0,0,1.135,1.211,1.607,2.945c0.326,1.202,0.156,2.753-0.192,3.924
		c0,0-1.069,0.358-1.415-0.67c0,0-0.762-0.224-0.703-0.849c0,0-0.832,0.179-0.918-0.715c-0.084-0.894-0.374-0.94-0.374-0.94"/>
	<path display="inline" fill="#94E1F2" d="M15.75,16.833c0,0-4.037-0.912-6.272-0.001c0,0-2.184,1.795-3.488,4.573
		c-1.304,2.778-1.672,5.624-1.686,5.799c0,0-0.181,1.326,0.218,1.991c0,0,0.271,0.771,0.811,0.788c0,0,0.81,0.329,1.667-1.57
		c0,0,0.798-0.896,1.115-0.977c0,0,0.759-0.683,1.233-1.528c0,0,0.393-0.864,1.281-1.127c0,0,0.692-0.291,1.192-1.336
		c0,0,1.905-0.482,2.011-0.815c0,0,0.083-2.085,0.522-2.77"/>
	<path display="inline" fill="#94E1F2" d="M29.25,16.833c0,0,4.062-0.912,6.297-0.001c0,0,2.184,1.795,3.488,4.573
		c1.305,2.778,1.672,5.624,1.686,5.799c0,0,0.181,1.326-0.218,1.991c0,0-0.271,0.771-0.811,0.788c0,0-0.81,0.329-1.667-1.57
		c0,0-0.799-0.896-1.115-0.977c0,0-0.76-0.683-1.233-1.528c0,0-0.394-0.864-1.281-1.127c0,0-0.692-0.291-1.192-1.336
		c0,0-1.904-0.482-2.011-0.815c0,0-0.083-2.085-0.522-2.77"/>
	<path display="inline" fill="#94E1F2" d="M20.612,39.122l-0.675-0.185c0,0,0.912,3,2.3,2.938s2.251-2.787,2.251-2.787"/>
	<g display="inline">
		<path fill="#94E1F2" stroke="#94E1F2" stroke-miterlimit="10" d="M11.529,27.122c1.292,8.792,5.583,11.667,9.083,12.5
			c0,0,2.071,0.563,3.775,0c3.416-1.13,7.791-3.708,9.084-12.5"/>
		<path fill="#94E1F2" stroke="#94E1F2" stroke-miterlimit="10" d="M11.529,27.122c-1.292-8.792,6.708-12.958,6.708-12.958
			c-0.643,0.374,3.453-2.621,8.525,0c0,0,8,4.166,6.709,12.958"/>
	</g>
	<g display="inline">
		<polygon fill="#F2F2F2" points="19.688,27.9 17.537,23.66 19.75,19.188 25.5,19 26.938,23.544 24.881,27.9 		"/>
	</g>
	<path display="inline" fill="#F2F2F2" d="M32.583,24.292c0.375-3.792-4.5-8.083-4.5-8.083l-2,2.542l1.979,4.312"/>
	<path display="inline" fill="#F2F2F2" d="M12.104,24.292c-0.375-3.792,4.5-8.083,4.5-8.083l2,2.542l-1.979,4.312"/>
	<path display="inline" fill="#F2F2F2" d="M19.875,29.25h5.069c0,0,0.747,4.892-2.821,4.938
		C18.556,34.233,19.875,29.25,19.875,29.25z"/>
	<path display="inline" fill="#F2F2F2" d="M27.875,24.459l-1.792,3.692c0,0,0.271,1.474,0,2.474s4.75,0.793,5,0.709
		s1.75-4.334,1.167-5.959"/>
	<path display="inline" fill="#F2F2F2" d="M16.312,25l1.098,0.884l0.69,1.27l0.733,1.347c0,0-0.524,1.43-0.271,2.366
		s-4.691,0.087-4.925,0.009c-0.234-0.079-1.997-3.919-1.451-5.441"/>
	<path display="inline" fill="#F2F2F2" d="M25.573,32.625c0,0,0.734-0.842,5.359-0.259c0,0-2.942,5.717-7.225,6.384
		c0,0-0.875-2.042-0.458-3.042"/>
	<path display="inline" fill="#F2F2F2" d="M18.997,32.625c0,0-0.734-0.842-5.359-0.259c0,0,2.942,5.717,7.225,6.384
		c0,0,0.875-2.042,0.458-3.042"/>
	<path display="inline" fill="#06334B" d="M16.802,23.372"/>
	<g display="inline" opacity="0.7">
		<g>
			<path fill="none" stroke="#C7E0AC" stroke-width="0.4" stroke-miterlimit="10" d="M40.125,27.875"/>
		</g>
	</g>
	<g display="inline" opacity="0.9">
		<path fill="#F2F2F2" d="M22,41"/>
		<g>
			<path fill="none" stroke="#C7E0AC" stroke-width="0.4" stroke-miterlimit="10" d="M22,41"/>
		</g>
	</g>
	<g display="inline">
		<g>
			<path fill="none" stroke="#C7E0AC" stroke-width="0.4" stroke-miterlimit="10" d="M13,37.062"/>
		</g>
	</g>
	<g display="inline">
		<g>
			<path fill="none" stroke="#C7E0AC" stroke-width="0.2366" stroke-miterlimit="10" d="M23.826,6.305"/>
		</g>
	</g>
	<path display="inline" fill="none" stroke="#A2C880" stroke-width="0.4" stroke-miterlimit="10" d="M22.5,0.625"/>
	<path display="inline" fill="#F2F2F2" d="M21.014,3.291c0,0-1.151,0.479-1.072,1.072c0.081,0.596,0.873,0.397,1.072,0.277
		c0.198-0.119,0.794-0.555,0.636-0.993c-0.161-0.435-0.161-0.435-0.161-0.435"/>
	<path display="inline" fill="#F2F2F2" d="M23.619,3.291c0,0,1.15,0.479,1.072,1.072c-0.078,0.596-0.873,0.397-1.072,0.277
		c-0.199-0.119-0.795-0.555-0.637-0.993c0.162-0.435,0.162-0.435,0.162-0.435"/>
	<g display="inline">
		<g>
			<path fill="none" stroke="#C7E0AC" stroke-width="0.2366" stroke-miterlimit="10" d="M22.04,4.491"/>
		</g>
	</g>
	<g display="inline">
		<g>
			<path fill="none" stroke="#C7E0AC" stroke-width="0.2366" stroke-miterlimit="10" d="M22.631,4.176"/>
		</g>
	</g>
	<g display="inline">
		<g>
			<path fill="none" stroke="#C7E0AC" stroke-width="0.2366" stroke-miterlimit="10" d="M25.036,4.491"/>
		</g>
	</g>
	<g display="inline">
		<g>
			<path fill="none" stroke="#C7E0AC" stroke-width="0.2366" stroke-miterlimit="10" d="M25.47,5.359"/>
		</g>
	</g>
	<path display="inline" fill="#F2F2F2" d="M25.607,18.083l1.629-2.458c0,0-2.021-1.792-4.7-1.625h-0.299
		c-2.68-0.167-4.701,1.625-4.701,1.625l1.63,2.458C19.167,18.083,20.84,17.417,25.607,18.083z"/>
</g>
<g id="ice_blue2">
	<path fill="#88C5EB" stroke="#5F89A3" stroke-width="1.5" stroke-miterlimit="10" d="M20.071,14.002
		c1.048-3.341-0.434-5.89-0.434-5.89c0.166,0.099-1.743-1.642-1.315-3.514C18.77,2.635,22.3,1.315,22.3,1.315
		s2.999,0.788,3.959,2.89s-1.051,3.691-1.271,3.912c0,0-0.079,0.228-0.183,0.604c-0.035,0.128-0.073,0.273-0.111,0.433
		c-0.313,1.292-0.663,3.508,0.139,4.931"/>
	<path fill="#88C5EB" stroke="#5F89A3" stroke-miterlimit="10" d="M13.501,32.946c0,0-1.134,1.152-1.606,2.804
		c-0.327,1.144-0.157,2.62,0.192,3.734c0,0,1.07,0.341,1.415-0.638c0,0,0.763-0.213,0.703-0.808c0,0,0.833,0.17,0.918-0.681
		c0.084-0.851,0.374-0.895,0.374-0.895"/>
	<path fill="#88C5EB" stroke="#5F89A3" stroke-miterlimit="10" d="M31.215,32.612c0,0,1.135,1.211,1.607,2.945
		c0.326,1.202,0.156,2.753-0.192,3.924c0,0-1.069,0.358-1.415-0.67c0,0-0.762-0.224-0.703-0.849c0,0-0.832,0.179-0.918-0.715
		c-0.084-0.894-0.374-0.94-0.374-0.94"/>
	<path fill="#88C5EB" stroke="#5F89A3" stroke-miterlimit="10" d="M15.75,16.833c0,0-4.037-0.912-6.272-0.001
		c0,0-2.184,1.795-3.488,4.573c-1.304,2.778-1.672,5.624-1.686,5.799c0,0-0.181,1.326,0.218,1.991c0,0,0.271,0.771,0.811,0.788
		c0,0,0.81,0.329,1.667-1.57c0,0,0.798-0.896,1.115-0.977c0,0,0.759-0.683,1.233-1.528c0,0,0.393-0.864,1.281-1.127
		c0,0,0.692-0.291,1.192-1.336c0,0,1.905-0.482,2.011-0.815c0,0,0.083-2.085,0.522-2.77"/>
	<path fill="#88C5EB" stroke="#5F89A3" stroke-miterlimit="10" d="M29.25,16.833c0,0,4.062-0.912,6.297-0.001
		c0,0,2.184,1.795,3.488,4.573c1.305,2.778,1.672,5.624,1.686,5.799c0,0,0.181,1.326-0.218,1.991c0,0-0.271,0.771-0.811,0.788
		c0,0-0.81,0.329-1.667-1.57c0,0-0.799-0.896-1.115-0.977c0,0-0.76-0.683-1.233-1.528c0,0-0.394-0.864-1.281-1.127
		c0,0-0.692-0.291-1.192-1.336c0,0-1.904-0.482-2.011-0.815c0,0-0.083-2.085-0.522-2.77"/>
	<path fill="#88C5EB" stroke="#5F89A3" stroke-miterlimit="10" d="M20.612,39.122l-0.675-0.185c0,0,0.912,3,2.3,2.938
		s2.251-2.787,2.251-2.787"/>
	<g>
		<path fill="#88C5EB" stroke="#5F89A3" stroke-miterlimit="10" d="M11.529,27.122c1.292,8.792,5.583,11.667,9.083,12.5
			c0,0,2.071,0.563,3.775,0c3.416-1.13,7.791-3.708,9.084-12.5"/>
		<path fill="#88C5EB" stroke="#5F89A3" stroke-miterlimit="10" d="M11.529,27.122c-1.292-8.792,6.708-12.958,6.708-12.958
			c-0.643,0.374,3.453-2.621,8.525,0c0,0,8,4.166,6.709,12.958"/>
	</g>
	<g>
		<polygon fill="#F2F2F2" points="19.688,27.9 17.537,23.66 19.75,19.188 25.5,19 26.938,23.544 24.881,27.9 		"/>
	</g>
	<path fill="#F2F2F2" d="M32.583,24.292c0.375-3.792-4.5-8.083-4.5-8.083l-2,2.542l1.979,4.312"/>
	<path fill="#F2F2F2" d="M12.104,24.292c-0.375-3.792,4.5-8.083,4.5-8.083l2,2.542l-1.979,4.312"/>
	<path fill="#F2F2F2" d="M19.875,29.25h5.069c0,0,0.747,4.892-2.821,4.938C18.556,34.233,19.875,29.25,19.875,29.25z"/>
	<path fill="#F2F2F2" d="M27.875,24.459l-1.792,3.692c0,0,0.271,1.474,0,2.474s4.75,0.793,5,0.709s1.75-4.334,1.167-5.959"/>
	<path fill="#F2F2F2" d="M16.312,25l1.098,0.884l0.69,1.27l0.733,1.347c0,0-0.524,1.43-0.271,2.366s-4.691,0.087-4.925,0.009
		c-0.234-0.079-1.997-3.919-1.451-5.441"/>
	<path fill="#F2F2F2" d="M25.573,32.625c0,0,0.734-0.842,5.359-0.259c0,0-2.942,5.717-7.225,6.384c0,0-0.875-2.042-0.458-3.042"/>
	<path fill="#F2F2F2" d="M18.997,32.625c0,0-0.734-0.842-5.359-0.259c0,0,2.942,5.717,7.225,6.384c0,0,0.875-2.042,0.458-3.042"/>
	<path fill="#06334B" d="M16.802,23.372"/>
	<g opacity="0.7">
		<g>
			<path fill="none" stroke="#C7E0AC" stroke-width="0.4" stroke-miterlimit="10" d="M40.125,27.875"/>
		</g>
	</g>
	<g opacity="0.9">
		<path fill="#F2F2F2" d="M22,41"/>
		<g>
			<path fill="none" stroke="#C7E0AC" stroke-width="0.4" stroke-miterlimit="10" d="M22,41"/>
		</g>
	</g>
	<g>
		<g>
			<path fill="none" stroke="#C7E0AC" stroke-width="0.4" stroke-miterlimit="10" d="M13,37.062"/>
		</g>
	</g>
	<g>
		<g>
			<path fill="none" stroke="#C7E0AC" stroke-width="0.2366" stroke-miterlimit="10" d="M23.826,6.305"/>
		</g>
	</g>
	<path fill="none" stroke="#A2C880" stroke-width="0.4" stroke-miterlimit="10" d="M22.5,0.625"/>
	<path fill="#F2F2F2" d="M21.014,3.291c0,0-1.151,0.479-1.072,1.072c0.081,0.596,0.873,0.397,1.072,0.277
		c0.198-0.119,0.794-0.555,0.636-0.993c-0.161-0.435-0.161-0.435-0.161-0.435"/>
	<path fill="#F2F2F2" d="M23.619,3.291c0,0,1.15,0.479,1.072,1.072c-0.078,0.596-0.873,0.397-1.072,0.277
		c-0.199-0.119-0.795-0.555-0.637-0.993c0.162-0.435,0.162-0.435,0.162-0.435"/>
	<g>
		<g>
			<path fill="none" stroke="#C7E0AC" stroke-width="0.2366" stroke-miterlimit="10" d="M22.04,4.491"/>
		</g>
	</g>
	<g>
		<g>
			<path fill="none" stroke="#C7E0AC" stroke-width="0.2366" stroke-miterlimit="10" d="M22.631,4.176"/>
		</g>
	</g>
	<g>
		<g>
			<path fill="none" stroke="#C7E0AC" stroke-width="0.2366" stroke-miterlimit="10" d="M25.036,4.491"/>
		</g>
	</g>
	<g>
		<g>
			<path fill="none" stroke="#C7E0AC" stroke-width="0.2366" stroke-miterlimit="10" d="M25.47,5.359"/>
		</g>
	</g>
	<path fill="#F2F2F2" d="M25.607,18.083l1.629-2.458c0,0-2.021-1.792-4.7-1.625h-0.299c-2.68-0.167-4.701,1.625-4.701,1.625
		l1.63,2.458C19.167,18.083,20.84,17.417,25.607,18.083z"/>
</g>
<g id="blue_x2F_indigo" display="none">
	<path display="inline" fill="#38A6DC" stroke="#1C1A2E" stroke-width="1.5" stroke-miterlimit="10" d="M20.071,14.002
		c1.048-3.341-0.434-5.89-0.434-5.89c0.166,0.099-1.743-1.642-1.315-3.514C18.77,2.635,22.3,1.315,22.3,1.315
		s2.999,0.788,3.959,2.89s-1.051,3.691-1.271,3.912c0,0-0.079,0.228-0.183,0.604c-0.035,0.128-0.073,0.273-0.111,0.433
		c-0.313,1.292-0.663,3.508,0.139,4.931"/>
	<path display="inline" fill="#38A6DC" stroke="#1C1A2E" stroke-width="1.5" stroke-miterlimit="10" d="M13.501,32.946
		c0,0-1.134,1.152-1.606,2.804c-0.327,1.144-0.157,2.62,0.192,3.734c0,0,1.07,0.341,1.415-0.638c0,0,0.763-0.213,0.703-0.808
		c0,0,0.833,0.17,0.918-0.681c0.084-0.851,0.374-0.895,0.374-0.895"/>
	<path display="inline" fill="#38A6DC" stroke="#1C1A2E" stroke-width="1.5" stroke-miterlimit="10" d="M31.215,32.612
		c0,0,1.135,1.211,1.607,2.945c0.326,1.202,0.156,2.753-0.192,3.924c0,0-1.069,0.358-1.415-0.67c0,0-0.762-0.224-0.703-0.849
		c0,0-0.832,0.179-0.918-0.715c-0.084-0.894-0.374-0.94-0.374-0.94"/>
	<path display="inline" fill="#38A6DC" stroke="#1C1A2E" stroke-width="1.5" stroke-miterlimit="10" d="M15.75,16.833
		c0,0-4.037-0.912-6.272-0.001c0,0-2.184,1.795-3.488,4.573c-1.304,2.778-1.672,5.624-1.686,5.799c0,0-0.181,1.326,0.218,1.991
		c0,0,0.271,0.771,0.811,0.788c0,0,0.81,0.329,1.667-1.57c0,0,0.798-0.896,1.115-0.977c0,0,0.759-0.683,1.233-1.528
		c0,0,0.393-0.864,1.281-1.127c0,0,0.692-0.291,1.192-1.336c0,0,1.905-0.482,2.011-0.815c0,0,0.083-2.085,0.522-2.77"/>
	<path display="inline" fill="#38A6DC" stroke="#1C1A2E" stroke-width="1.5" stroke-miterlimit="10" d="M29.25,16.833
		c0,0,4.062-0.912,6.297-0.001c0,0,2.184,1.795,3.488,4.573c1.305,2.778,1.672,5.624,1.686,5.799c0,0,0.181,1.326-0.218,1.991
		c0,0-0.271,0.771-0.811,0.788c0,0-0.81,0.329-1.667-1.57c0,0-0.799-0.896-1.115-0.977c0,0-0.76-0.683-1.233-1.528
		c0,0-0.394-0.864-1.281-1.127c0,0-0.692-0.291-1.192-1.336c0,0-1.904-0.482-2.011-0.815c0,0-0.083-2.085-0.522-2.77"/>
	<path display="inline" fill="#38A6DC" stroke="#1C1A2E" stroke-width="1.5" stroke-miterlimit="10" d="M20.612,39.122l-0.675-0.185
		c0,0,0.912,3,2.3,2.938s2.251-2.787,2.251-2.787"/>
	<g display="inline">
		<path fill="#1C1A2E" stroke="#1C1A2E" stroke-miterlimit="10" d="M11.529,27.122c1.292,8.792,5.583,11.667,9.083,12.5
			c0,0,2.071,0.563,3.775,0c3.416-1.13,7.791-3.708,9.084-12.5"/>
		<path fill="#1C1A2E" stroke="#1C1A2E" stroke-miterlimit="10" d="M11.529,27.122c-1.292-8.792,6.708-12.958,6.708-12.958
			c-0.643,0.374,3.453-2.621,8.525,0c0,0,8,4.166,6.709,12.958"/>
	</g>
	<g display="inline">
		<polygon fill="#38A6DC" points="19.688,27.9 17.537,23.66 19.75,19.188 25.5,19 26.938,23.544 24.881,27.9 		"/>
	</g>
	<path display="inline" fill="#38A6DC" d="M32.583,24.292c0.375-3.792-4.5-8.083-4.5-8.083l-2,2.542l1.979,4.312"/>
	<path display="inline" fill="#38A6DC" d="M12.104,24.292c-0.375-3.792,4.5-8.083,4.5-8.083l2,2.542l-1.979,4.312"/>
	<path display="inline" fill="#38A6DC" d="M19.875,29.25h5.069c0,0,0.747,4.892-2.821,4.938
		C18.556,34.233,19.875,29.25,19.875,29.25z"/>
	<path display="inline" fill="#38A6DC" d="M27.875,24.459l-1.792,3.692c0,0,0.271,1.474,0,2.474s4.75,0.793,5,0.709
		s1.75-4.334,1.167-5.959"/>
	<path display="inline" fill="#38A6DC" d="M16.312,25l1.098,0.884l0.69,1.27l0.733,1.347c0,0-0.524,1.43-0.271,2.366
		s-4.691,0.087-4.925,0.009c-0.234-0.079-1.997-3.919-1.451-5.441"/>
	<path display="inline" fill="#38A6DC" d="M25.573,32.625c0,0,0.734-0.842,5.359-0.259c0,0-2.942,5.717-7.225,6.384
		c0,0-0.875-2.042-0.458-3.042"/>
	<path display="inline" fill="#38A6DC" d="M18.997,32.625c0,0-0.734-0.842-5.359-0.259c0,0,2.942,5.717,7.225,6.384
		c0,0,0.875-2.042,0.458-3.042"/>
	<path display="inline" fill="#06334B" d="M16.802,23.372"/>
	<g display="inline" opacity="0.7">
		<g>
			<path fill="none" stroke="#C7E0AC" stroke-width="0.4" stroke-miterlimit="10" d="M40.125,27.875"/>
		</g>
	</g>
	<g display="inline" opacity="0.9">
		<path fill="#F2F2F2" d="M22,41"/>
		<g>
			<path fill="none" stroke="#C7E0AC" stroke-width="0.4" stroke-miterlimit="10" d="M22,41"/>
		</g>
	</g>
	<g display="inline">
		<g>
			<path fill="none" stroke="#C7E0AC" stroke-width="0.4" stroke-miterlimit="10" d="M13,37.062"/>
		</g>
	</g>
	<g display="inline">
		<g>
			<path fill="none" stroke="#C7E0AC" stroke-width="0.2366" stroke-miterlimit="10" d="M23.826,6.305"/>
		</g>
	</g>
	<path display="inline" fill="none" stroke="#A2C880" stroke-width="0.4" stroke-miterlimit="10" d="M22.5,0.625"/>
	<path display="inline" fill="#231F20" d="M21.014,3.291c0,0-1.151,0.479-1.072,1.072c0.081,0.596,0.873,0.397,1.072,0.277
		c0.198-0.119,0.794-0.555,0.636-0.993c-0.161-0.435-0.161-0.435-0.161-0.435"/>
	<path display="inline" fill="#231F20" d="M23.619,3.291c0,0,1.15,0.479,1.072,1.072c-0.078,0.596-0.873,0.397-1.072,0.277
		c-0.199-0.119-0.795-0.555-0.637-0.993c0.162-0.435,0.162-0.435,0.162-0.435"/>
	<g display="inline">
		<g>
			<path fill="none" stroke="#C7E0AC" stroke-width="0.2366" stroke-miterlimit="10" d="M22.04,4.491"/>
		</g>
	</g>
	<g display="inline">
		<g>
			<path fill="none" stroke="#C7E0AC" stroke-width="0.2366" stroke-miterlimit="10" d="M22.631,4.176"/>
		</g>
	</g>
	<g display="inline">
		<g>
			<path fill="none" stroke="#C7E0AC" stroke-width="0.2366" stroke-miterlimit="10" d="M25.036,4.491"/>
		</g>
	</g>
	<g display="inline">
		<g>
			<path fill="none" stroke="#C7E0AC" stroke-width="0.2366" stroke-miterlimit="10" d="M25.47,5.359"/>
		</g>
	</g>
	<path display="inline" fill="#38A6DC" d="M25.607,18.083l1.629-2.458c0,0-2.021-1.792-4.7-1.625h-0.299
		c-2.68-0.167-4.701,1.625-4.701,1.625l1.63,2.458C19.167,18.083,20.84,17.417,25.607,18.083z"/>
</g>
</svg>
