<?xml version="1.0" encoding="UTF-8" standalone="no"?>
<!-- Created with Inkscape (http://www.inkscape.org/) -->

<svg
   xmlns:dc="http://purl.org/dc/elements/1.1/"
   xmlns:cc="http://creativecommons.org/ns#"
   xmlns:rdf="http://www.w3.org/1999/02/22-rdf-syntax-ns#"
   xmlns:svg="http://www.w3.org/2000/svg"
   xmlns="http://www.w3.org/2000/svg"
   xmlns:sodipodi="http://sodipodi.sourceforge.net/DTD/sodipodi-0.dtd"
   xmlns:inkscape="http://www.inkscape.org/namespaces/inkscape"
   id="svg2"
   version="1.1"
   inkscape:version="0.48.4 r9939"
   width="45.45"
   height="52.3125"
   xml:space="preserve"
   sodipodi:docname="kinetic-kame-v1.eps"><metadata
     id="metadata8"><rdf:RDF><cc:Work
         rdf:about=""><dc:format>image/svg+xml</dc:format><dc:type
           rdf:resource="http://purl.org/dc/dcmitype/StillImage" /><dc:title></dc:title></cc:Work></rdf:RDF></metadata><defs
     id="defs6" /><sodipodi:namedview
     pagecolor="#ffffff"
     bordercolor="#666666"
     borderopacity="1"
     objecttolerance="10"
     gridtolerance="10"
     guidetolerance="10"
     inkscape:pageopacity="0"
     inkscape:pageshadow="2"
     inkscape:window-width="640"
     inkscape:window-height="480"
     id="namedview4"
     showgrid="false"
     inkscape:zoom="4.5113501"
     inkscape:cx="22.725"
     inkscape:cy="26.15625"
     inkscape:window-x="491"
     inkscape:window-y="287"
     inkscape:window-maximized="0"
     inkscape:current-layer="g10" /><g
     id="g10"
     inkscape:groupmode="layer"
     inkscape:label="ink_ext_XXXXXX"
     transform="matrix(1.25,0,0,-1.25,0,52.3125)"><g
       id="g12"
       transform="scale(0.1,0.1)"><path
         d="m 111.211,255.453 4.184,3.078"
         style="fill:#9acf6b;fill-opacity:1;fill-rule:nonzero;stroke:none"
         id="path14" /><path
         d="m 259.902,255.453 -4.179,3.078"
         style="fill:#9acf6b;fill-opacity:1;fill-rule:nonzero;stroke:none"
         id="path16" /><path
         d="m 163.074,283.73 c 10.485,33.415 -4.34,58.903 -4.34,58.903 1.657,-0.992 -17.425,16.418 -13.156,35.137 4.481,19.632 39.785,32.835 39.785,32.835 0,0 29.989,-7.882 39.598,-28.898 9.609,-21.016 -10.508,-36.906 -12.715,-39.121 0,0 -0.793,-2.277 -1.828,-6.035 -0.352,-1.278 -0.73,-2.735 -1.113,-4.324 -3.133,-12.926 -6.629,-35.082 1.386,-49.305"
         style="fill:#eb2528;fill-opacity:1;fill-rule:nonzero;stroke:none"
         id="path18" /><path
         d="m 170.23,281.484 c 2.985,9.504 4.094,18.473 4.094,26.496 -0.035,22.719 -8.73,37.731 -9.105,38.422 l -6.485,-3.769 -3.855,-6.438 0.84,-0.437 c 0.508,-0.16 0.976,-0.578 3.105,-0.668 1.082,-0.008 3.219,0.258 5.145,2.039 0.926,0.859 1.597,1.98 1.937,2.969 0.348,0.996 0.43,1.847 0.43,2.504 -0.113,2.382 -0.629,2.875 -0.816,3.41 l -0.79,1.258 -1.23,1.468 c -1.5,1.739 -4.355,5.145 -6.785,9.442 -2.445,4.285 -4.285,9.308 -4.262,13.968 0,1.325 0.141,2.637 0.438,3.95 l 0,0.004 c 0.652,2.968 2.785,6.437 6.136,9.816 4.977,5.082 12.348,9.695 18.395,12.824 3.023,1.574 5.719,2.805 7.629,3.629 0.953,0.414 1.715,0.723 2.222,0.93 l 0.571,0.222 0.148,0.059 -2.629,7.023 -1.906,-7.253 0.203,-0.055 c 1.305,-0.363 8.395,-2.508 15.887,-6.699 7.547,-4.176 15.183,-10.403 18.594,-18.008 l 0,0 c 1.398,-3.078 1.894,-5.766 1.902,-8.293 0.027,-5.285 -2.43,-10.317 -5.48,-14.375 -1.508,-2.012 -3.106,-3.731 -4.442,-5.043 l -1.769,-1.676 -1.418,-1.316 -1.211,-1.219 -0.563,-1.621 c -0.043,-0.125 -0.883,-2.555 -1.972,-6.5 l 0,-0.004 c -0.372,-1.348 -0.774,-2.883 -1.176,-4.57 l 0.004,0.019 c -1.789,-7.414 -3.727,-17.679 -3.735,-28.351 0.024,-8.895 1.297,-18.203 5.875,-26.403 l 13.071,7.364 c -2.715,4.742 -3.969,11.656 -3.946,19.039 -0.011,8.828 1.688,18.144 3.313,24.82 l 0.004,0.008 0,0.011 c 0.359,1.497 0.718,2.872 1.05,4.083 l 0,-0.004 c 0.493,1.781 0.922,3.203 1.227,4.168 l 0.348,1.086 0.109,0.316 -7.086,2.457 5.309,-5.297 -0.621,0.621 0.609,-0.633 0.012,0.012 -0.621,0.621 0.609,-0.633 c 0.199,0.203 1.68,1.496 3.352,3.161 2.574,2.566 5.996,6.355 8.886,11.335 2.875,4.965 5.262,11.25 5.262,18.524 0.008,4.629 -0.996,9.59 -3.262,14.531 l 0,0 c -5.992,12.899 -17.301,20.809 -26.718,25.84 -9.485,5.004 -17.438,7.09 -17.793,7.191 l -2.301,0.606 -2.231,-0.836 c -0.269,-0.106 -9.433,-3.52 -19.508,-9.688 -5.039,-3.093 -10.324,-6.875 -14.886,-11.496 -4.531,-4.617 -8.489,-10.164 -10.078,-17.007 l -0.008,-0.043 0.012,0.043 c -0.567,-2.469 -0.817,-4.918 -0.817,-7.29 0.055,-10.093 4.277,-18.511 8.141,-24.55 1.953,-3.024 3.879,-5.473 5.304,-7.188 l 1.661,-1.949 0.273,-0.324 4.035,3.242 -4.285,-2.895 0.25,-0.347 4.035,3.242 -4.285,-2.895 5.84,3.946 -6.289,-3.176 0.449,-0.77 5.84,3.946 -6.289,-3.176 6.633,3.348 -7.43,0 c 0.113,-2.368 0.621,-2.84 0.797,-3.348 l 6.633,3.348 -7.43,0 7.484,0 -7.054,2.496 c -0.352,-0.993 -0.426,-1.84 -0.43,-2.496 l 7.484,0 -7.054,2.496 7.062,-2.496 -3.68,6.523 c -1.531,-0.805 -2.914,-2.535 -3.382,-4.027 l 7.062,-2.496 -3.68,6.523 3.676,-6.52 0,7.485 c -0.851,-0.004 -2.152,-0.121 -3.676,-0.965 l 3.676,-6.52 0,7.485 0,-7.414 3.035,6.769 c -0.472,0.145 -0.921,0.559 -3.035,0.645 l 0,-7.414 3.035,6.769 -2.847,-6.347 3.574,5.968 -0.727,0.379 -2.847,-6.347 3.574,5.968 -24.969,14.954 14.633,-25.161 2.551,1.485 -2.567,-1.457 0.016,-0.028 2.551,1.485 -2.567,-1.457 c 0.106,-0.145 7.121,-12.731 7.09,-30.907 0,-6.644 -0.914,-14.054 -3.406,-22.003 l 14.312,-4.493"
         style="fill:#211c1d;fill-opacity:1;fill-rule:nonzero;stroke:none"
         id="path20" /><path
         d="m 97.375,94.2969 c 0,0 -11.3398,-11.5235 -16.0625,-28.0352 -3.2656,-11.4375 -1.5742,-26.2031 1.918,-37.3437 0,0 10.6992,-3.4102 14.1445,6.375 0,0 7.629,2.1289 7.031,8.0742 0,0 8.332,-1.6953 9.188,6.8086 0.844,8.5078 3.738,8.9453 3.738,8.9453"
         style="fill:#eb2528;fill-opacity:1;fill-rule:nonzero;stroke:none"
         id="path22" /><path
         d="M 93.8125,97.8047 C 93.543,97.4766 81.6875,85.5703 76.5039,67.6328 l 0,0 C 75.1211,62.7852 74.5664,57.6094 74.5625,52.4023 74.5703,43.6836 76.1289,34.875 78.4609,27.4219 l 0.7774,-2.4805 2.4765,-0.7891 c 0.3047,-0.0898 2.5157,-0.8007 5.6836,-0.8125 2.2657,0.0079 5.1094,0.375 7.9414,1.9532 2.8399,1.5468 5.4182,4.4453 6.7542,8.3398 l -4.719,1.6602 1.3477,-4.8164 c 0.289,0.0937 2.4493,0.6718 4.9533,2.3203 1.25,0.8359 2.613,1.9609 3.765,3.6015 1.149,1.6211 2.012,3.8555 2,6.3164 l -0.058,1.1524 -4.977,-0.5 -0.996,-4.8984 c 0.235,-0.043 1.211,-0.2344 2.664,-0.2383 1.801,0.0156 4.469,0.2578 7.199,2.0078 2.762,1.7226 4.954,5.2461 5.293,9.4375 l 0,0.0039 c 0.36,3.7187 1.168,5.125 1.293,5.2695 l 0.016,0.0196 -2.199,1.8906 0.406,-2.6836 c 1.016,0.1211 1.758,0.7031 1.793,0.793 l -2.199,1.8906 0.406,-2.6836 -1.5,9.8867 c -1.172,-0.1211 -3.387,-1.125 -4.887,-3.3359 -1.531,-2.1993 -2.593,-5.2696 -3.078,-10.0547 l 0,0.0039 c -0.273,-1.8867 -0.597,-1.832 -0.82,-2.0664 l -1.723,-0.3789 -0.617,0.0351 -0.117,0.0157 -0.293,-1.7735 0.359,1.7617 -0.066,0.0118 -0.293,-1.7735 0.359,1.7617 -6.6482,1.3555 0.6758,-6.7539 0.0078,-0.1563 -0.207,-0.6015 -1.8946,-1.457 -1.039,-0.4532 -0.2695,-0.0937 0.0039,-0.0156 -0.0039,0.0156 0,0 0.0039,-0.0156 -0.0039,0.0156 -2.504,-0.6992 -0.8671,-2.4571 C 91.9609,35.082 91.25,34.5039 90.457,34.0156 89.6563,33.5586 88.5313,33.3359 87.3984,33.3398 l -2.0273,0.1993 -0.5586,0.125 -0.1016,0.0273 -0.4375,-1.5039 0.4766,1.4922 -0.0391,0.0117 -0.4375,-1.5039 0.4766,1.4922 -1.5195,-4.7617 4.7734,1.4922 c -2.0469,6.5039 -3.4492,14.4882 -3.4414,21.9921 0,4.4805 0.4961,8.7813 1.5586,12.4844 l -0.0039,0 c 2.1523,7.5313 5.8945,14.1055 9.1094,18.7344 1.6015,2.3164 3.0664,4.1484 4.1132,5.3789 l 1.2232,1.3867 0.304,0.3281 0.074,0.0743 -7.1285,7.0156"
         style="fill:#211c1d;fill-opacity:1;fill-rule:nonzero;stroke:none"
         id="path24" /><path
         d="m 274.512,97.6367 c 0,0 11.347,-12.1094 16.074,-29.4531 3.262,-12.0234 1.562,-27.5313 -1.926,-39.2383 0,0 -10.691,-3.5859 -14.148,6.6992 0,0 -7.617,2.2383 -7.032,8.4883 0,0 -8.32,-1.789 -9.179,7.1445 -0.84,8.9375 -3.742,9.4063 -3.742,9.4063"
         style="fill:#eb2528;fill-opacity:1;fill-rule:nonzero;stroke:none"
         id="path26" /><path
         d="m 270.859,94.2188 0.075,-0.0821 c 1,-1.0625 10.789,-12.2969 14.828,-27.2695 l -0.004,0.0078 c 1.07,-3.9375 1.57,-8.4961 1.57,-13.2344 0.008,-7.9492 -1.406,-16.3867 -3.461,-23.2695 l 4.793,-1.4258 -1.59,4.7383 0.539,-1.5977 -0.496,1.6133 -0.043,-0.0156 0.539,-1.5977 -0.496,1.6133 c -0.066,-0.0273 -1.297,-0.3672 -2.621,-0.3594 -1.105,-0.0039 -2.179,0.2188 -2.965,0.6875 -0.781,0.4961 -1.55,1.1485 -2.277,3.211 l -0.832,2.4687 -2.5,0.7344 -0.461,-1.5742 0.5,1.5625 -0.039,0.0117 -0.461,-1.5742 0.5,1.5625 c -0.074,0.0117 -1.391,0.4961 -2.301,1.2031 l -0.972,0.9961 -0.239,0.8242 0.012,0.2071 0.637,6.789 -6.664,-1.4297 0.406,-1.8984 -0.328,1.9141 -0.078,-0.0157 0.406,-1.8984 -0.328,1.9141 -0.699,-0.0508 -1.618,0.375 c -0.214,0.2226 -0.64,0.2929 -0.914,2.3984 l 0,-0.0117 c -0.48,4.9805 -1.519,8.1211 -3.015,10.375 -1.453,2.2695 -3.672,3.3594 -4.907,3.4961 l -1.593,-9.8711 0.593,3.6875 -2.039,-3.168 1.446,-0.5195 0.593,3.6875 -2.039,-3.168 0.848,1.3125 -1.223,-1 0.375,-0.3125 0.848,1.3125 -1.223,-1 0.528,-1.1758 c 0.301,-0.8945 0.644,-2.375 0.851,-4.5898 l 0.004,-0.0117 c 0.336,-4.2774 2.43,-7.8555 5.199,-9.6836 2.735,-1.8477 5.461,-2.1211 7.286,-2.1328 1.48,0.0039 2.472,0.207 2.718,0.2578 l -1.047,4.8906 -4.98,0.4649 -0.055,-1.1446 c -0.011,-2.4726 0.813,-4.7265 1.934,-6.3984 1.703,-2.5313 3.859,-3.9414 5.531,-4.8555 1.684,-0.9023 2.965,-1.2812 3.192,-1.3515 l 1.41,4.7968 -4.742,-1.5937 c 1.308,-4 3.832,-7 6.687,-8.6406 2.844,-1.6641 5.742,-2.0664 8.035,-2.0704 3.211,0.0118 5.438,0.7657 5.758,0.8633 l 2.461,0.8242 0.742,2.4922 c 2.317,7.793 3.867,17.0157 3.875,26.1211 -0.004,5.4258 -0.555,10.8125 -1.918,15.8516 l 0,0.0039 c -5.152,18.7148 -16.984,31.2269 -17.254,31.5589 l -7.297,-6.8362"
         style="fill:#211c1d;fill-opacity:1;fill-rule:nonzero;stroke:none"
         id="path28" /><path
         d="m 119.863,255.422 c 0,0 -40.3708,9.113 -62.7224,0.008 0,0 -21.8359,-17.953 -34.875,-45.727 C 9.22266,181.926 5.53906,153.469 5.41016,151.719 c 0,0 -1.8086,-13.262 2.17578,-19.91 0,0 2.70706,-7.707 8.10546,-7.883 0,0 8.1016,-3.289 16.6758,15.703 0,0 7.9766,8.957 11.1484,9.766 0,0 7.5899,6.828 12.3321,15.285 0,0 3.9296,8.64 12.8125,11.265 0,0 6.9179,2.91 11.9179,13.364 0,0 19.0508,4.812 20.1129,8.152 0,0 0.836,20.852 5.219,27.691"
         style="fill:#eb2528;fill-opacity:1;fill-rule:nonzero;stroke:none"
         id="path30" /><path
         d="m 120.965,260.297 c -0.199,0.035 -18.36,4.164 -37.6486,4.176 -9.6523,-0.016 -19.6055,-0.996 -28.0625,-4.414 l -0.7031,-0.286 -0.586,-0.48 C 53.6797,259.02 31.3711,240.766 17.7383,211.828 l 0,0 C 11.0195,197.508 6.75781,183.148 4.12891,172.105 2.82031,166.582 1.91797,161.891 1.33594,158.445 0.746094,154.945 0.492188,152.93 0.421875,152.094 l 4.988285,-0.375 -4.957035,0.676 C 0.4375,152.246 0.00390625,149.066 0,144.859 0.0664063,140.191 0.347656,134.355 3.29688,129.238 l 4.28906,2.571 -4.71875,-1.661 c 0.09765,-0.246 0.87109,-2.496 2.63672,-5.066 0.89843,-1.281 2.05078,-2.672 3.67578,-3.875 1.60161,-1.195 3.80081,-2.203 6.34761,-2.277 l 0.1641,4.996 -1.8828,-4.633 c 0.4687,-0.191 1.6445,-0.586 3.3633,-0.586 2.4804,-0.027 6.0039,0.938 9.4297,3.828 3.4531,2.887 6.9218,7.52 10.3203,15.035 l -4.5547,2.059 3.7344,-3.328 1.2109,1.324 c 1.1406,1.219 2.9453,3.082 4.6406,4.617 l 2.2813,1.895 0.6914,0.453 0.0781,0.043 -0.6758,1.582 0.4258,-1.664 0.25,0.082 -0.6758,1.582 0.4258,-1.664 1.1914,0.304 0.9102,0.821 c 0.1914,0.207 8.0547,7.172 13.3554,16.554 l 0.1016,0.188 0.0859,0.187 -0.457,0.211 0.4531,-0.218 0.0039,0.007 -0.457,0.211 0.4531,-0.218 c 0.0899,0.199 1.0118,2.007 2.6797,3.886 1.6758,1.899 4.0235,3.793 7.0039,4.668 l 0.2657,0.078 0.2539,0.11 c 0.7578,0.293 8.8593,4.012 14.4921,15.808 l -4.5117,2.161 1.2266,-4.848 c 0.0664,0.016 4.8984,1.234 10.0039,2.926 2.5625,0.847 5.1758,1.801 7.4414,2.875 1.137,0.547 2.188,1.109 3.207,1.84 0.973,0.785 2.16,1.55 3,3.839 l 0.203,0.645 0.028,0.676 c 0,0.004 0.046,1.211 0.191,3.207 0.211,2.992 0.637,7.668 1.383,12.082 0.687,4.367 1.965,8.652 2.859,9.902 l -8.418,5.395 c -1.64,-2.61 -2.535,-5.551 -3.3202,-8.75 -2.2422,-9.493 -2.668,-21.278 -2.6875,-21.438 l 4.9957,-0.199 -4.7652,1.516 3.0508,-0.969 -2.3946,2.168 -0.6562,-1.199 3.0508,-0.969 -2.3946,2.168 0.8399,-0.762 -0.7461,0.852 -0.0938,-0.09 0.8399,-0.762 -0.7461,0.852 c -0.0078,-0.067 -1.4453,-0.934 -3.2031,-1.629 -2.6797,-1.117 -6.2774,-2.27 -9.1368,-3.106 -2.8671,-0.843 -4.9765,-1.375 -4.9804,-1.379 l -2.2735,-0.574 -1.0117,-2.113 c -2.1914,-4.574 -4.7109,-7.34 -6.5937,-8.973 -0.9414,-0.812 -1.7266,-1.34 -2.2305,-1.64 l -0.5234,-0.293 0,-0.004 1.9375,-4.61 -1.418,4.797 c -5.7031,-1.699 -9.6445,-5.226 -12.1445,-8.195 -2.5079,-2.992 -3.668,-5.52 -3.8008,-5.801 l 4.5508,-2.066 -4.3594,2.441 c -2.0938,-3.742 -4.9688,-7.328 -7.3008,-9.91 -1.1641,-1.293 -2.1914,-2.34 -2.918,-3.051 l -0.8398,-0.808 -0.2578,-0.239 3.3437,-3.718 -1.2422,4.843 c -2.3125,-0.679 -3.4765,-1.691 -4.957,-2.804 -4.1328,-3.325 -8.582,-8.383 -8.6836,-8.481 l -0.5078,-0.57 -0.3164,-0.695 c -2.9688,-6.594 -5.7344,-9.918 -7.6055,-11.465 -1.9023,-1.543 -2.7929,-1.485 -3.0312,-1.516 l -0.0742,0.004 -0.2032,-1.828 0.6797,1.676 -0.4765,0.152 -0.2032,-1.828 0.6797,1.676 -0.8281,0.336 -0.8906,0.027 -0.7422,0.332 c -0.6133,0.426 -1.4766,1.531 -2.0195,2.539 l -0.629,1.281 -0.1445,0.348 -0.0234,0.062 -1.4336,-0.527 1.4414,0.508 -0.0078,0.019 -1.4336,-0.527 1.4414,0.508 -0.168,0.476 -0.2617,0.434 c -1.2305,1.859 -1.94141,6.633 -1.875,10.484 0,1.754 0.0938,3.34 0.1875,4.465 l 0.125,1.309 0.0508,0.41 0.0195,0.148 0.0117,0.153 c -0.0039,0.039 0.2539,2.234 0.8008,5.429 1.6445,9.754 6.1055,30.614 15.5938,50.805 l 0,-0.004 c 6.2382,13.293 14.6718,24.379 21.539,32.082 3.4297,3.852 6.4649,6.864 8.625,8.891 1.0782,1.016 1.9375,1.789 2.5196,2.297 l 0.6523,0.562 0.1914,0.16 -3.1758,3.864 1.8867,-4.629 c 6.4375,2.644 15.3711,3.691 24.2891,3.672 8.9336,0.004 17.8596,-0.981 24.5076,-1.973 3.324,-0.492 6.082,-0.988 7.996,-1.355 1.914,-0.372 2.938,-0.602 2.942,-0.602 l 2.203,9.754"
         style="fill:#211c1d;fill-opacity:1;fill-rule:nonzero;stroke:none"
         id="path32" /><path
         d="m 272.816,214.215 c 0,0 38.422,16.035 51.399,36.375 0,0 7.449,27.273 2.051,57.48 -5.403,30.207 -18.848,55.555 -19.746,57.063 0,0 -6.188,11.867 -13.282,14.992 0,0 -6.66,4.727 -11.172,1.75 0,0 -8.507,-1.992 -4.531,-22.449 0,0 -1.344,-11.922 -3.461,-14.414 0,0 -2.254,-9.961 -1.234,-19.602 0,0 1.781,-9.324 -3.945,-16.597 0,0 -3.973,-6.379 -2.016,-17.797 0,0 -12.762,-14.93 -11.699,-18.274 0,0 11.371,-17.496 11.734,-25.617"
         style="fill:#eb2528;fill-opacity:1;fill-rule:nonzero;stroke:none"
         id="path34" /><path
         d="m 274.742,209.602 c 0.129,0.054 9.899,4.128 21.43,10.855 11.523,6.785 24.851,15.973 32.258,27.445 l 0.41,0.641 0.199,0.73 c 0.07,0.282 4.184,15.336 4.188,35.77 0,7.406 -0.543,15.523 -2.039,23.906 l 0,0 c -2.79,15.571 -7.61,29.754 -11.848,40.285 -2.117,5.262 -4.098,9.614 -5.61,12.762 -1.539,3.192 -2.503,4.996 -2.917,5.699 l -4.293,-2.562 4.433,2.312 c -0.074,0.137 -1.707,3.274 -4.367,6.946 -2.723,3.652 -6.211,7.957 -11.332,10.312 l -2.016,-4.578 2.891,4.078 c -0.16,0.113 -1.328,0.942 -3.156,1.809 -1.832,0.847 -4.313,1.82 -7.414,1.847 -1.942,0.008 -4.211,-0.461 -6.246,-1.812 l 2.753,-4.172 -1.136,4.867 c -0.758,-0.16 -3.325,-1.008 -5.567,-3.824 -2.254,-2.813 -3.902,-7.262 -3.886,-13.742 0,-3.043 0.347,-6.571 1.152,-10.703 l 4.906,0.953 -4.969,0.562 c 0,-0.004 -0.074,-0.675 -0.226,-1.781 -0.227,-1.656 -0.625,-4.219 -1.121,-6.457 -0.246,-1.113 -0.524,-2.145 -0.77,-2.863 l -0.301,-0.77 -0.043,-0.082 1.469,-0.898 -1.308,1.109 -0.161,-0.211 1.469,-0.898 -1.308,1.109 -0.793,-0.933 -0.274,-1.196 c -0.039,-0.215 -1.613,-7.094 -1.625,-15.402 0,-1.883 0.082,-3.844 0.293,-5.828 l 0.024,-0.207 0.039,-0.207 1.461,0.281 -1.469,-0.254 0.008,-0.027 1.461,0.281 -1.469,-0.254 c 0.016,-0.074 0.18,-1.086 0.18,-2.559 0.011,-2.753 -0.602,-6.863 -3.137,-10.039 l -0.172,-0.214 -0.145,-0.235 c -0.355,-0.562 -3.308,-5.59 -3.308,-14.265 0,-2.129 0.176,-4.477 0.613,-7.016 l 4.926,0.844 -3.801,3.25 c -0.039,-0.051 -3.027,-3.543 -6.09,-7.653 -1.531,-2.058 -3.082,-4.258 -4.336,-6.371 -0.625,-1.062 -1.179,-2.097 -1.636,-3.176 -0.438,-1.101 -0.864,-2.171 -0.899,-3.867 l 0.297,-1.969 0.207,-0.644 0.367,-0.566 c 0,-0.004 0.66,-1.016 1.7,-2.727 1.554,-2.566 3.91,-6.625 5.847,-10.66 1.965,-3.961 3.395,-8.195 3.387,-9.731 l 9.988,0.45 c -0.168,3.078 -1.133,6 -2.344,9.066 -3.652,9.043 -10.117,18.906 -10.195,19.051 l -4.191,-2.727 4.765,1.52 -3.336,-1.063 3.508,0 -0.172,1.063 -3.336,-1.063 3.508,0 -1.605,0 1.57,-0.418 0.035,0.418 -1.605,0 1.57,-0.418 c 0.012,0.184 0.719,1.715 1.754,3.305 1.555,2.461 3.801,5.441 5.625,7.746 0.914,1.152 1.727,2.148 2.309,2.848 l 0.91,1.09 1.523,1.781 -0.394,2.312 c -0.34,1.977 -0.469,3.75 -0.469,5.325 0,3.191 0.539,5.566 1.031,7.085 l 0.637,1.625 0.156,0.313 0.012,0.023 -2.477,1.454 2.438,-1.52 0.039,0.066 -2.477,1.454 2.438,-1.52 -4.242,2.645 3.925,-3.094 c 4.528,5.797 5.27,12.215 5.282,16.222 0,2.516 -0.309,4.176 -0.352,4.411 l -4.91,-0.942 4.973,0.528 c -0.168,1.57 -0.239,3.187 -0.239,4.777 0,3.512 0.348,6.871 0.699,9.316 0.176,1.223 0.352,2.215 0.481,2.895 l 0.199,0.98 -4.879,1.106 3.813,-3.235 c 1.496,1.891 1.855,3.387 2.426,5.153 1.449,5.097 2.164,11.8 2.191,11.937 l 0.086,0.762 -0.149,0.75 c -0.703,3.617 -0.964,6.516 -0.964,8.797 0.015,4.906 1.16,6.808 1.703,7.5 l 0.504,0.48 -0.864,1.5 0.387,-1.648 0.477,0.148 -0.864,1.5 0.387,-1.648 0.871,0.203 0.742,0.492 0.739,0.156 c 0.718,0.028 2.082,-0.367 3.132,-0.886 l 1.286,-0.692 0.324,-0.207 0.062,-0.039 0.836,1.223 -0.855,-1.211 0.019,-0.012 0.836,1.223 -0.855,-1.211 0.414,-0.293 0.465,-0.203 c 1.968,-0.77 5.121,-3.965 7.265,-7.028 1.106,-1.519 2.024,-2.98 2.657,-4.043 l 0.718,-1.253 0.223,-0.407 0.066,-0.125 0.075,-0.125 c 0.035,-0.05 1.089,-1.98 2.492,-4.906 4.293,-8.914 12.707,-28.516 16.625,-50.476 l 0,0 c 1.375,-7.688 1.886,-15.227 1.883,-22.145 0.003,-9.539 -0.969,-17.898 -1.942,-23.828 -0.48,-2.969 -0.965,-5.328 -1.32,-6.93 l -0.43,-1.816 -0.144,-0.559 4.824,-1.32 -4.215,2.691 c -5.566,-8.871 -17.941,-17.871 -28.871,-24.187 -5.461,-3.188 -10.555,-5.77 -14.266,-7.543 -1.855,-0.891 -3.363,-1.574 -4.402,-2.035 -1.035,-0.461 -1.57,-0.684 -1.57,-0.684 l 3.851,-9.23"
         style="fill:#211c1d;fill-opacity:1;fill-rule:nonzero;stroke:none"
         id="path36" /><path
         d="m 168.484,32.5391 -6.746,1.8476 c 0,0 9.121,-29.99998 22.996,-29.37498 13.879,0.625 22.512,27.87108 22.512,27.87108"
         style="fill:#eb2528;fill-opacity:1;fill-rule:nonzero;stroke:none"
         id="path38" /><path
         d="m 169.805,37.3594 -6.75,1.8476 -8.739,2.3907 2.637,-8.668 c 0.063,-0.1758 2.344,-7.7344 6.547,-15.6016 2.121,-3.9336 4.703,-7.96872 7.992,-11.27341 3.25,-3.25 7.512,-6.0273462 12.817,-6.05469 l 0.648,0.015625 0.004,0 c 5.144,0.246094 9.34,2.875005 12.602,6.000005 4.917,4.74607 8.339,10.98047 10.75,16.09767 2.382,5.1133 3.652,9.1211 3.699,9.2578 l -9.535,3.0195 -0.344,-1.0195 c -0.84,-2.4063 -3.262,-8.6836 -6.699,-14.0859 -1.707,-2.6993 -3.676,-5.1563 -5.618,-6.7969 -1.964,-1.6602 -3.722,-2.418 -5.304,-2.4844 l 0,0 L 184.309,10 c -1.516,-0.02734 -3.485,0.8672 -5.746,3.1289 -3.356,3.3047 -6.575,9.1055 -8.708,13.9844 -1.085,2.4414 -1.929,4.6562 -2.496,6.2422 l -0.64,1.8633 -0.199,0.621 -4.782,-1.4531 -1.32,-4.8242 6.746,-1.8477 2.641,9.6446"
         style="fill:#211c1d;fill-opacity:1;fill-rule:nonzero;stroke:none"
         id="path40" /><path
         d="M 77.6484,152.539 C 90.5703,64.6172 133.484,35.8672 168.484,27.5391 c 0,0 20.715,-5.6368 37.754,0 34.16,11.3007 77.91,37.0781 90.84,124.9999"
         style="fill:#eb2528;fill-opacity:1;fill-rule:nonzero;stroke:none"
         id="path42" /><path
         d="m 72.7031,151.813 c 6.5547,-44.657 20.836,-74.8208 38.3129,-94.9028 17.461,-20.0938 38.011,-29.8985 56.312,-34.2344 l 1.156,4.8633 -1.312,-4.8243 c 0.258,-0.0625 9.785,-2.6679 21.707,-2.6796 5.965,0.0039 12.551,0.6523 18.93,2.7578 17.539,5.789 37.976,15.4883 55.543,35.1836 17.582,19.6836 32.117,49.1604 38.675,93.8364 l -9.894,1.453 C 285.758,110.02 271.953,82.6484 255.891,64.6367 239.809,46.6328 221.289,37.793 204.668,32.2852 c -4.98,-1.6524 -10.57,-2.2539 -15.789,-2.25 -5.223,-0.0039 -10.063,0.5898 -13.559,1.1796 -1.75,0.2969 -3.16,0.5938 -4.121,0.8086 l -1.082,0.2579 -0.32,0.082 -0.078,0.0195 -0.078,0.0195 c -16.7,3.9922 -35.106,12.7266 -51.082,31.0704 C 102.598,81.8281 88.9609,110 82.5977,153.266 l -9.8946,-1.453"
         style="fill:#211c1d;fill-opacity:1;fill-rule:nonzero;stroke:none"
         id="path44" /><path
         d="m 77.6484,152.539 c -12.9179,87.914 67.0856,129.574 67.0856,129.574 -6.425,-3.738 34.528,26.211 85.254,0 0,0 80,-41.66 67.09,-129.574"
         style="fill:#eb2528;fill-opacity:1;fill-rule:nonzero;stroke:none"
         id="path46" /><path
         d="m 82.5977,153.266 c -0.9297,6.332 -1.3594,12.398 -1.3594,18.207 0.0078,35.898 16.3359,62.3 32.8987,80.019 8.269,8.832 16.57,15.43 22.769,19.785 3.102,2.184 5.676,3.801 7.453,4.868 l 2.039,1.183 0.645,0.352 -2.309,4.433 -2.515,4.321 -0.145,-0.082 -0.027,-0.016 1.281,-2.504 -1.074,2.598 -0.207,-0.094 1.281,-2.504 -1.074,2.598 1.699,-4.114 -1.285,4.262 -0.414,-0.148 1.699,-4.114 -1.285,4.262 1.414,-4.683 0,4.89 c -0.91,-0.023 -1.172,-0.152 -1.414,-0.207 l 1.414,-4.683 0,4.89 0,-4.984 2.645,4.222 c -1.305,0.77 -2.141,0.735 -2.645,0.762 l 0,-4.984 2.645,4.222 -2.653,-4.23 4.403,2.355 -1.75,1.875 -2.653,-4.23 4.403,2.355 -4.403,-2.355 4.996,0 -0.593,2.355 -4.403,-2.355 4.996,0 -4.98,0 4.363,-2.402 c 0.195,0.414 0.578,1.015 0.617,2.402 l -4.98,0 4.363,-2.402 -4.258,2.343 3.453,-3.421 0.805,1.078 -4.258,2.343 3.453,-3.421 -2.734,2.707 2.34,-3.059 0.394,0.352 -2.734,2.707 2.34,-3.059 0.004,0.004 c 0.305,0.211 1.703,1.07 3.769,2.07 6.27,3.067 19.176,7.949 35.668,7.942 12.032,-0.008 25.981,-2.551 41,-10.305 l -0.015,0.008 0.644,-0.352 c 3.442,-1.91 19.934,-11.64 35.36,-29.258 15.449,-17.656 29.793,-42.941 29.804,-76.609 0,-5.809 -0.425,-11.867 -1.355,-18.195 l 9.894,-1.453 c 0.996,6.8 1.461,13.351 1.461,19.648 0.008,39.078 -17.91,68 -35.597,86.859 -17.715,18.907 -35.278,28.055 -35.594,28.227 l -0.004,0.004 -0.008,0.004 c -16.48,8.523 -32.14,11.425 -45.59,11.422 -13.433,-0.004 -24.66,-2.864 -32.578,-5.782 -3.965,-1.461 -7.101,-2.933 -9.304,-4.101 -1.102,-0.582 -1.969,-1.086 -2.625,-1.5 l -0.883,-0.598 -0.535,-0.43 -0.543,-0.566 -0.536,-0.789 c -0.203,-0.418 -0.586,-1.027 -0.621,-2.418 l 0.59,-2.363 c 0.66,-1.27 1.856,-2.051 2.653,-2.325 l 1.769,-0.32 1.387,0.192 1.133,0.461 0.648,0.355 -4.824,8.754 c -0.317,-0.172 -17.875,-9.32 -35.59,-28.223 -17.6876,-18.859 -35.6055,-47.777 -35.5977,-86.851 0,-6.301 0.4648,-12.856 1.4648,-19.66 l 9.8946,1.453"
         style="fill:#211c1d;fill-opacity:1;fill-rule:nonzero;stroke:none"
         id="path48" /><path
         d="m 172.5,390.848 c 0,0 -11.516,-4.785 -10.723,-10.723 0.809,-5.957 8.731,-3.973 10.723,-2.773 1.98,1.191 7.938,5.546 6.355,9.933 -1.609,4.344 -1.609,4.344 -1.609,4.344"
         style="fill:#fdfbc7;fill-opacity:1;fill-rule:nonzero;stroke:none"
         id="path50" /><path
         d="m 198.555,390.848 c 0,0 11.504,-4.785 10.722,-10.723 -0.781,-5.957 -8.73,-3.973 -10.722,-2.773 -1.992,1.191 -7.95,5.546 -6.367,9.933 1.621,4.344 1.621,4.344 1.621,4.344"
         style="fill:#fdfbc7;fill-opacity:1;fill-rule:nonzero;stroke:none"
         id="path52" /><path
         d="m 148.406,236.254 -20,25.418"
         style="fill:#278752;fill-opacity:1;fill-rule:nonzero;stroke:none"
         id="path54" /><path
         d="m 217.363,235.207 -61.668,0 -17.968,-48.051 21.511,-42.398 51.934,0 20.566,43.562 -14.375,46.887 z m -7.394,-10 11.07,-36.117 -16.207,-34.332 -39.453,0 -16.746,33.008 14,37.441 47.336,0"
         style="fill:#211c1d;fill-opacity:1;fill-rule:nonzero;stroke:none"
         id="path56" /><path
         d="m 186.555,284.359 c -28.739,-0.004 -48.828,-16.855 -48.828,-16.855 l 16.3,-24.582 64.411,0 16.289,24.582 c -17.274,12.644 -33.801,16.855 -48.172,16.855 z m 0.004,-10 0,0 c 11.691,0 23.187,-3.257 34.285,-9.699 l -7.778,-11.738 -53.671,0 -7.821,11.797 c 7.449,4.219 19.938,9.64 34.985,9.64"
         style="fill:#211c1d;fill-opacity:1;fill-rule:nonzero;stroke:none"
         id="path58" /><path
         d="m 210.887,138.176 -50.692,0 c 0,0 -12.074,-49.3908 21.442,-49.3908 l 1.043,0.0156 c 34.808,1.0351 28.207,49.3752 28.207,49.3752 z m -9.489,-10 c -0.117,-7.824 -1.519,-18.043 -6.628,-24.047 -2.957,-3.477 -6.891,-5.1681 -12.387,-5.3321 l -0.746,-0.0117 c -5.879,0 -8.25,2.1488 -9.52,3.7618 -4.332,5.496 -4.605,16.641 -3.539,25.629 l 32.82,0"
         style="fill:#211c1d;fill-opacity:1;fill-rule:nonzero;stroke:none"
         id="path60" /><path
         d="M 128.406,261.672 C 77.9922,215.84 83.4063,180.84 83.4063,180.84 l 45.2067,12.297 19.793,43.117 -20,25.418 z m -1.051,-14.836 9.415,-11.965 -15.293,-33.312 -26.9223,-7.325 c 2.6601,11.371 10.4613,30.102 32.8003,52.602"
         style="fill:#211c1d;fill-opacity:1;fill-rule:nonzero;stroke:none"
         id="path62" /><path
         d="m 243.137,261.672 -20,-25.418 19.793,-43.117 45.207,-12.297 c 0,0 5.414,35 -45,80.832 z m 1.051,-14.84 c 22.226,-22.41 30.039,-41.176 32.738,-52.578 l -26.86,7.305 -15.293,33.312 9.415,11.961"
         style="fill:#211c1d;fill-opacity:1;fill-rule:nonzero;stroke:none"
         id="path64" /><path
         d="M 125.488,173.762 84.2266,169.426 C 78.1758,152.18 98.7383,115.012 98.7383,115.012 l 29.4567,-4.282 c 2.559,-0.203 4.785,-0.289 6.727,-0.289 13.082,0 13.137,3.985 13.137,3.985 -3.262,8.804 2.636,24.336 2.636,24.336 l -14.937,26.73 -10.27,8.27 z m -3.058,-10.379 5.543,-4.465 11.843,-21.188 c -1.285,-4.312 -2.796,-10.796 -2.722,-17.238 l -2.172,-0.051 c -1.633,0 -3.496,0.075 -5.621,0.235 l -24.086,3.5 c -5.5861,11.113 -11.5119,26.449 -12.1056,36.125 l 29.3206,3.082"
         style="fill:#211c1d;fill-opacity:1;fill-rule:nonzero;stroke:none"
         id="path66" /><path
         d="m 125.844,102.344 c -14.012,0 -27.1057,-2.246 -27.1057,-2.246 0,0 7.6017,-12.6566 25.8907,-35.9691 18.289,-23.3086 46.355,-27.8672 46.355,-27.8672 7.582,17.5078 4.582,30.418 4.582,30.418 l -23.367,30.957 c -6.543,3.6333 -16.668,4.7073 -26.355,4.7073 z m 0,-10.0002 0,0 c 10.859,0 16.769,-1.4415 19.836,-2.668 l 20.363,-26.9805 c 0.23,-2.5781 0.316,-7.7031 -1.438,-14.4062 -8.484,2.8789 -22.039,9.1757 -32.109,22.0156 -6.93,8.832 -12.301,16.1133 -16.266,21.6992 3.036,0.2031 6.305,0.3399 9.614,0.3399"
         style="fill:#211c1d;fill-opacity:1;fill-rule:nonzero;stroke:none"
         id="path68" /><path
         d="m 244.313,102.344 c -9.688,0 -19.817,-1.074 -26.356,-4.7073 l -23.363,-30.957 c 0,0 -3.004,-12.9102 4.578,-30.418 0,0 28.066,4.5586 46.355,27.8672 18.289,23.3125 25.891,35.9691 25.891,35.9691 0,0 -13.094,2.246 -27.105,2.246 z m 0,-10.0002 c 3.308,0 6.578,-0.1368 9.613,-0.3399 C 249.961,86.418 244.59,79.1367 237.66,70.3047 227.684,57.5859 214.059,51.2461 205.539,48.3281 c -1.754,6.7188 -1.66,11.836 -1.434,14.3555 l 20.372,26.9922 c 3.066,1.2265 8.976,2.668 19.836,2.668"
         style="fill:#211c1d;fill-opacity:1;fill-rule:nonzero;stroke:none"
         id="path70" /><path
         d="m 241.113,179.172 -17.922,-36.926 c 3.539,-6.715 -0.054,-25.851 -0.054,-25.851 0,0 1.105,-5.325 10.683,-6.739 2.118,-0.316 5.243,-0.437 8.821,-0.437 12.601,0 30.851,1.511 30.851,1.511 18.449,35.844 11.371,59.282 11.371,59.282 l -43.75,9.16 z m 5.586,-11.391 29.391,-6.152 c 0.558,-7.441 -0.078,-21.914 -9.063,-41.352 -6.273,-0.437 -16.554,-1.058 -24.386,-1.058 -4.473,0 -6.532,0.207 -7.36,0.328 l -1.453,0.289 c 0.863,6.207 1.535,14.785 0.09,21.605 l 12.781,26.34"
         style="fill:#211c1d;fill-opacity:1;fill-rule:nonzero;stroke:none"
         id="path72" /></g></g></svg>