<?xml version="1.0" encoding="UTF-8" standalone="no"?>
<!DOCTYPE svg PUBLIC "-//W3C//DTD SVG 1.1//EN" "http://www.w3.org/Graphics/SVG/1.1/DTD/svg11.dtd">
<svg width="100%" height="100%" viewBox="0 0 46 53" version="1.1" xmlns="http://www.w3.org/2000/svg" xmlns:xlink="http://www.w3.org/1999/xlink" xml:space="preserve" style="fill-rule:evenodd;clip-rule:evenodd;stroke-linecap:round;stroke-linejoin:round;stroke-miterlimit:1.5;">
    <g id="g12" transform="matrix(0.125,0,0,-0.125,0,52.3125)">
        <g id="path14" transform="matrix(1,0,0,1,-0.63711,-0.560815)">
            <path d="M111.211,255.453L115.395,258.531" style="fill:rgb(154,207,107);fill-rule:nonzero;"/>
        </g>
        <g id="path18" transform="matrix(1,0,0,1,-0.63711,-32.5608)">
            <path d="M163.074,283.73C173.559,317.145 158.734,342.633 158.734,342.633C160.391,341.641 141.309,359.051 145.578,377.77C150.059,397.402 185.363,410.605 185.363,410.605C185.363,410.605 215.352,402.723 224.961,381.707C234.57,360.691 214.453,344.801 212.246,342.586C212.246,342.586 211.453,340.309 210.418,336.551C210.066,335.273 209.688,333.816 209.305,332.227C206.172,319.301 202.676,297.145 210.691,282.922" style="fill:rgb(254,255,255);fill-rule:nonzero;"/>
        </g>
        <g id="path20" transform="matrix(1,0,0,1,-0.63711,-32.5608)">
            <path d="M170.23,281.484C173.215,290.988 174.324,299.957 174.324,307.98C174.289,330.699 165.594,345.711 165.219,346.402L158.734,342.633L154.879,336.195L155.719,335.758C156.227,335.598 156.695,335.18 158.824,335.09C159.906,335.082 162.043,335.348 163.969,337.129C164.895,337.988 165.566,339.109 165.906,340.098C166.254,341.094 166.336,341.945 166.336,342.602C166.223,344.984 165.707,345.477 165.52,346.012L164.73,347.27L163.5,348.738C162,350.477 159.145,353.883 156.715,358.18C154.27,362.465 152.43,367.488 152.453,372.148C152.453,373.473 152.594,374.785 152.891,376.098L152.891,376.102C153.543,379.07 155.676,382.539 159.027,385.918C164.004,391 171.375,395.613 177.422,398.742C180.445,400.316 183.141,401.547 185.051,402.371C186.004,402.785 186.766,403.094 187.273,403.301L187.844,403.523L187.992,403.582L185.363,410.605L183.457,403.352L183.66,403.297C184.965,402.934 192.055,400.789 199.547,396.598C207.094,392.422 214.73,386.195 218.141,378.59C219.539,375.512 220.035,372.824 220.043,370.297C220.07,365.012 217.613,359.98 214.563,355.922C213.055,353.91 211.457,352.191 210.121,350.879L208.352,349.203L206.934,347.887L205.723,346.668L205.16,345.047C205.117,344.922 204.277,342.492 203.188,338.547L203.188,338.543C202.816,337.195 202.414,335.66 202.012,333.973L202.016,333.992C200.227,326.578 198.289,316.313 198.281,305.641C198.305,296.746 199.578,287.438 204.156,279.238L217.227,286.602C214.512,291.344 213.258,298.258 213.281,305.641C213.27,314.469 214.969,323.785 216.594,330.461L216.598,330.469L216.598,330.48C216.957,331.977 217.316,333.352 217.648,334.563L217.648,334.559C218.141,336.34 218.57,337.762 218.875,338.727L219.223,339.813L219.332,340.129L212.246,342.586L217.555,337.289L216.934,337.91L217.543,337.277L217.555,337.289L216.934,337.91L217.543,337.277C217.742,337.48 219.223,338.773 220.895,340.438C223.469,343.004 226.891,346.793 229.781,351.773C232.656,356.738 235.043,363.023 235.043,370.297C235.051,374.926 234.047,379.887 231.781,384.828C225.789,397.727 214.48,405.637 205.063,410.668C195.578,415.672 187.625,417.758 187.27,417.859L184.969,418.465L182.738,417.629C182.469,417.523 173.305,414.109 163.23,407.941C158.191,404.848 152.906,401.066 148.344,396.445C143.813,391.828 139.855,386.281 138.266,379.438L138.258,379.395L138.27,379.438C137.703,376.969 137.453,374.52 137.453,372.148C137.508,362.055 141.73,353.637 145.594,347.598C147.547,344.574 149.473,342.125 150.898,340.41L152.559,338.461L152.832,338.137L156.867,341.379L152.582,338.484L152.832,338.137L156.867,341.379L152.582,338.484L158.422,342.43L152.133,339.254L152.582,338.484L158.422,342.43L152.133,339.254L158.766,342.602L151.336,342.602C151.449,340.234 151.957,339.762 152.133,339.254L158.766,342.602L151.336,342.602L158.82,342.602L151.766,345.098C151.414,344.105 151.34,343.258 151.336,342.602L158.82,342.602L151.766,345.098L158.828,342.602L155.148,349.125C153.617,348.32 152.234,346.59 151.766,345.098L158.828,342.602L155.148,349.125L158.824,342.605L158.824,350.09C157.973,350.086 156.672,349.969 155.148,349.125L158.824,342.605L158.824,350.09L158.824,342.676L161.859,349.445C161.387,349.59 160.938,350.004 158.824,350.09L158.824,342.676L161.859,349.445L159.012,343.098L162.586,349.066L161.859,349.445L159.012,343.098L162.586,349.066L137.617,364.02L152.25,338.859L154.801,340.344L152.234,338.887L152.25,338.859L154.801,340.344L152.234,338.887C152.34,338.742 159.355,326.156 159.324,307.98C159.324,301.336 158.41,293.926 155.918,285.977L170.23,281.484" style="fill:rgb(40,81,88);fill-rule:nonzero;"/>
        </g>
        <g id="path50" transform="matrix(1,0,0,1,-0.63711,-32.5608)">
            <path d="M172.5,390.848C172.5,390.848 160.984,386.063 161.777,380.125C162.586,374.168 170.508,376.152 172.5,377.352C174.48,378.543 180.438,382.898 178.855,387.285L177.246,391.629" style="fill:rgb(40,81,88);fill-rule:nonzero;"/>
        </g>
        <g id="path52" transform="matrix(1,0,0,1,-0.63711,-32.5608)">
            <path d="M198.555,390.848C198.555,390.848 210.059,386.063 209.277,380.125C208.496,374.168 200.547,376.152 198.555,377.352C196.563,378.543 190.605,382.898 192.188,387.285L193.809,391.629" style="fill:rgb(40,81,88);fill-rule:nonzero;"/>
        </g>
        <g transform="matrix(8,0,0,-8,0,418.5)">
            <path d="M15.493,17.993L15.392,5.675C15.392,5.675 16.677,1.603 22.97,1.603C29.262,1.603 30.716,5.727 30.716,5.727L30.505,18.328L15.493,17.993Z" style="fill:rgb(144,172,174);fill-opacity:0.501961;stroke:rgb(250,253,252);stroke-width:0.75px;"/>
        </g>
        <g id="path38" transform="matrix(1,0,0,1,-0.63711,-0.560815)">
            <path d="M168.484,32.539L161.738,34.387C161.738,34.387 170.859,4.387 184.734,5.012C198.613,5.637 207.246,32.883 207.246,32.883" style="fill:rgb(254,255,255);fill-rule:nonzero;"/>
        </g>
        <g id="path40" transform="matrix(1,0,0,1,-0.63711,-0.560815)">
            <path d="M169.805,37.359L163.055,39.207L154.316,41.598L156.953,32.93C157.016,32.754 159.297,25.195 163.5,17.328C165.621,13.395 168.203,9.359 171.492,6.055C174.742,2.805 179.004,0.027 184.309,0L184.957,0.016L184.961,0.016C190.105,0.262 194.301,2.891 197.563,6.016C202.48,10.762 205.902,16.996 208.313,22.113C210.695,27.227 211.965,31.234 212.012,31.371L202.477,34.391L202.133,33.371C201.293,30.965 198.871,24.688 195.434,19.285C193.727,16.586 191.758,14.129 189.816,12.488C187.852,10.828 186.094,10.07 184.512,10.004L184.309,10C182.793,9.973 180.824,10.867 178.563,13.129C175.207,16.434 171.988,22.234 169.855,27.113C168.77,29.555 167.926,31.77 167.359,33.356L166.719,35.219L166.52,35.84L161.738,34.387L160.418,29.563L167.164,27.715L169.805,37.359" style="fill:rgb(40,81,88);fill-rule:nonzero;"/>
        </g>
        <g id="path22" transform="matrix(1,0,0,1,-0.63711,-0.560815)">
            <path d="M97.375,94.297C97.375,94.297 86.035,82.773 81.313,66.262C78.047,54.824 79.738,40.059 83.231,28.918C83.231,28.918 93.93,25.508 97.375,35.293C97.375,35.293 105.004,37.422 104.406,43.367C104.406,43.367 112.738,41.672 113.594,50.176C114.438,58.684 117.332,59.121 117.332,59.121" style="fill:rgb(254,255,255);fill-rule:nonzero;"/>
        </g>
        <g id="path24" transform="matrix(1,0,0,1,-0.63711,-0.560815)">
            <path d="M93.813,97.805C93.543,97.477 81.688,85.57 76.504,67.633C75.121,62.785 74.566,57.609 74.563,52.402C74.57,43.684 76.129,34.875 78.461,27.422L79.238,24.941L81.715,24.152C82.019,24.063 84.23,23.352 87.398,23.34C89.664,23.348 92.508,23.715 95.34,25.293C98.18,26.84 100.758,29.738 102.094,33.633L97.375,35.293L98.723,30.477C99.012,30.57 101.172,31.148 103.676,32.797C104.926,33.633 106.289,34.758 107.441,36.398C108.59,38.02 109.453,40.254 109.441,42.715L109.383,43.867L104.406,43.367L103.41,38.469C103.645,38.426 104.621,38.234 106.074,38.231C107.875,38.246 110.543,38.488 113.273,40.238C116.035,41.961 118.227,45.484 118.566,49.676L118.566,49.68C118.926,53.398 119.734,54.805 119.859,54.949L119.875,54.969L117.676,56.859L118.082,54.176C119.098,54.297 119.84,54.879 119.875,54.969L117.676,56.859L118.082,54.176L116.582,64.063C115.41,63.941 113.195,62.938 111.695,60.727C110.164,58.527 109.102,55.457 108.617,50.672L108.617,50.676C108.344,48.789 108.02,48.844 107.797,48.609L106.074,48.231L105.457,48.266L105.34,48.281L105.047,46.508L105.406,48.27L105.34,48.281L105.047,46.508L105.406,48.27L98.758,49.625L99.434,42.871L99.441,42.715L99.234,42.113L97.34,40.656L96.301,40.203L96.031,40.109L96.035,40.094L96.031,40.109L96.035,40.094L96.031,40.109L93.527,39.41L92.66,36.953C91.961,35.082 91.25,34.504 90.457,34.016C89.656,33.559 88.531,33.336 87.398,33.34L85.371,33.539L84.813,33.664L84.711,33.691L84.273,32.187L84.75,33.68L84.711,33.691L84.273,32.187L84.75,33.68L83.231,28.918L88.004,30.41C85.957,36.914 84.555,44.898 84.563,52.402C84.563,56.883 85.059,61.184 86.121,64.887L86.117,64.887C88.269,72.418 92.012,78.992 95.227,83.621C96.828,85.937 98.293,87.769 99.34,89L100.563,90.387L100.867,90.715L100.941,90.789L93.813,97.805" style="fill:rgb(40,81,88);fill-rule:nonzero;"/>
        </g>
        <g id="path26" transform="matrix(1,0,0,1,-0.63711,-0.560815)">
            <path d="M274.512,97.637C274.512,97.637 285.859,85.527 290.586,68.184C293.848,56.16 292.148,40.652 288.66,28.945C288.66,28.945 277.969,25.359 274.512,35.645C274.512,35.645 266.895,37.883 267.48,44.133C267.48,44.133 259.16,42.344 258.301,51.277C257.461,60.215 254.559,60.684 254.559,60.684" style="fill:rgb(254,255,255);fill-rule:nonzero;"/>
        </g>
        <g id="path28" transform="matrix(1,0,0,1,-0.63711,-0.560815)">
            <path d="M270.859,94.219L270.934,94.137C271.934,93.074 281.723,81.84 285.762,66.867L285.758,66.875C286.828,62.938 287.328,58.379 287.328,53.641C287.336,45.691 285.922,37.254 283.867,30.371L288.66,28.945L287.07,33.684L287.609,32.086L287.113,33.699L287.07,33.684L287.609,32.086L287.113,33.699C287.047,33.672 285.816,33.332 284.492,33.34C283.387,33.336 282.313,33.559 281.527,34.027C280.746,34.523 279.977,35.176 279.25,37.238L278.418,39.707L275.918,40.441L275.457,38.867L275.957,40.43L275.918,40.441L275.457,38.867L275.957,40.43C275.883,40.441 274.566,40.926 273.656,41.633L272.684,42.629L272.445,43.453L272.457,43.66L273.094,50.449L266.43,49.019L266.836,47.121L266.508,49.035L266.43,49.019L266.836,47.121L266.508,49.035L265.809,48.984L264.191,49.359C263.977,49.582 263.551,49.652 263.277,51.758L263.277,51.746C262.797,56.727 261.758,59.867 260.262,62.121C258.809,64.391 256.59,65.48 255.355,65.617L253.762,55.746L254.355,59.434L252.316,56.266L253.762,55.746L254.355,59.434L252.316,56.266L253.164,57.578L251.941,56.578L252.316,56.266L253.164,57.578L251.941,56.578L252.469,55.402C252.77,54.508 253.113,53.027 253.32,50.812L253.324,50.801C253.66,46.523 255.754,42.945 258.523,41.117C261.258,39.269 263.984,38.996 265.809,38.984C267.289,38.988 268.281,39.191 268.527,39.242L267.48,44.133L262.5,44.598L262.445,43.453C262.434,40.98 263.258,38.727 264.379,37.055C266.082,34.523 268.238,33.113 269.91,32.199C271.594,31.297 272.875,30.918 273.102,30.848L274.512,35.644L269.77,34.051C271.078,30.051 273.602,27.051 276.457,25.41C279.301,23.746 282.199,23.344 284.492,23.34C287.703,23.352 289.93,24.105 290.25,24.203L292.711,25.027L293.453,27.519C295.77,35.312 297.32,44.535 297.328,53.641C297.324,59.066 296.773,64.453 295.41,69.492L295.41,69.496C290.258,88.211 278.426,100.723 278.156,101.055L270.859,94.219" style="fill:rgb(40,81,88);fill-rule:nonzero;"/>
        </g>
        <path id="path30" d="M119.863,255.422C119.863,255.422 79.492,264.535 57.141,255.43C57.141,255.43 35.305,237.477 22.266,209.703C9.223,181.926 5.539,153.469 5.41,151.719C5.41,151.719 3.602,138.457 7.586,131.809C7.586,131.809 10.293,124.102 15.691,123.926C15.691,123.926 23.793,120.637 32.367,139.629C32.367,139.629 40.344,148.586 43.516,149.395C43.516,149.395 51.106,156.223 55.848,164.68C55.848,164.68 59.777,173.32 68.66,175.945C68.66,175.945 75.578,178.855 80.578,189.309C80.578,189.309 99.629,194.121 100.691,197.461C100.691,197.461 101.527,218.313 105.91,225.152" style="fill:rgb(254,255,255);fill-rule:nonzero;"/>
        <path id="path32" d="M120.965,260.297C120.766,260.332 102.605,264.461 83.316,264.473C73.664,264.457 63.711,263.477 55.254,260.059L54.551,259.773L53.965,259.293C53.68,259.02 31.371,240.766 17.738,211.828C11.02,197.508 6.758,183.148 4.129,172.105C2.82,166.582 1.918,161.891 1.336,158.445C0.746,154.945 0.492,152.93 0.422,152.094L5.41,151.719L0.453,152.395C0.438,152.246 0.004,149.066 0,144.859C0.066,140.191 0.348,134.355 3.297,129.238L7.586,131.809L2.867,130.148C2.965,129.902 3.738,127.652 5.504,125.082C6.402,123.801 7.555,122.41 9.18,121.207C10.781,120.012 12.98,119.004 15.527,118.93L15.691,123.926L13.809,119.293C14.277,119.102 15.453,118.707 17.172,118.707C19.652,118.68 23.176,119.645 26.602,122.535C30.055,125.422 33.523,130.055 36.922,137.57L32.367,139.629L36.102,136.301L37.313,137.625C38.453,138.844 40.258,140.707 41.953,142.242L44.234,144.137L44.926,144.59L45.004,144.633L44.328,146.215L44.754,144.551L45.004,144.633L44.328,146.215L44.754,144.551L45.945,144.855L46.856,145.676C47.047,145.883 54.91,152.848 60.211,162.23L60.313,162.418L60.398,162.605L59.941,162.816L60.395,162.598L60.398,162.605L59.941,162.816L60.395,162.598C60.484,162.797 61.406,164.605 63.074,166.484C64.75,168.383 67.098,170.277 70.078,171.152L70.344,171.23L70.598,171.34C71.356,171.633 79.457,175.352 85.09,187.148L80.578,189.309L81.805,184.461C81.871,184.477 86.703,185.695 91.809,187.387C94.371,188.234 96.984,189.188 99.25,190.262C100.387,190.809 101.438,191.371 102.457,192.102C103.43,192.887 104.617,193.652 105.457,195.941L105.66,196.586L105.688,197.262C105.688,197.266 105.734,198.473 105.879,200.469C106.09,203.461 106.516,208.137 107.262,212.551C107.949,216.918 109.227,221.203 110.121,222.453L101.703,227.848C100.063,225.238 99.168,222.297 98.383,219.098C96.141,209.605 95.715,197.82 95.695,197.66L100.691,197.461L95.926,198.977L98.977,198.008L96.582,200.176L95.926,198.977L98.977,198.008L96.582,200.176L97.422,199.414L96.676,200.266L96.582,200.176L97.422,199.414L96.676,200.266C96.668,200.199 95.231,199.332 93.473,198.637C90.793,197.52 87.195,196.367 84.336,195.531C81.469,194.688 79.359,194.156 79.356,194.152L77.082,193.578L76.07,191.465C73.879,186.891 71.359,184.125 69.477,182.492C68.535,181.68 67.75,181.152 67.246,180.852L66.723,180.559L66.723,180.555L68.66,175.945L67.242,180.742C61.539,179.043 57.598,175.516 55.098,172.547C52.59,169.555 51.43,167.027 51.297,166.746L55.848,164.68L51.488,167.121C49.394,163.379 46.519,159.793 44.187,157.211C43.023,155.918 41.996,154.871 41.269,154.16L40.43,153.352L40.172,153.113L43.516,149.395L42.273,154.238C39.961,153.559 38.797,152.547 37.316,151.434C33.184,148.109 28.734,143.051 28.633,142.953L28.125,142.383L27.809,141.688C24.84,135.094 22.074,131.77 20.203,130.223C18.301,128.68 17.41,128.738 17.172,128.707L17.098,128.711L16.894,126.883L17.574,128.559L17.098,128.711L16.894,126.883L17.574,128.559L16.746,128.895L15.855,128.922L15.113,129.254C14.5,129.68 13.637,130.785 13.094,131.793L12.465,133.074L12.32,133.422L12.297,133.484L10.863,132.957L12.305,133.465L12.297,133.484L10.863,132.957L12.305,133.465L12.137,133.941L11.875,134.375C10.644,136.234 9.934,141.008 10,144.859C10,146.613 10.094,148.199 10.187,149.324L10.312,150.633L10.363,151.043L10.383,151.191L10.394,151.344C10.391,151.383 10.648,153.578 11.195,156.773C12.84,166.527 17.301,187.387 26.789,207.578L26.789,207.574C33.027,220.867 41.461,231.953 48.328,239.656C51.758,243.508 54.793,246.52 56.953,248.547C58.031,249.563 58.891,250.336 59.473,250.844L60.125,251.406L60.316,251.566L57.141,255.43L59.027,250.801C65.465,253.445 74.398,254.492 83.316,254.473C92.25,254.477 101.176,253.492 107.824,252.5C111.148,252.008 113.906,251.512 115.82,251.145C117.734,250.773 118.758,250.543 118.762,250.543L120.965,260.297" style="fill:rgb(40,81,88);fill-rule:nonzero;"/>
        <g id="path301" transform="matrix(-1,0,0,1,363.105,0.234403)">
            <path d="M119.863,255.422C119.863,255.422 79.492,264.535 57.141,255.43C57.141,255.43 35.305,237.477 22.266,209.703C9.223,181.926 5.539,153.469 5.41,151.719C5.41,151.719 3.602,138.457 7.586,131.809C7.586,131.809 10.293,124.102 15.691,123.926C15.691,123.926 23.793,120.637 32.367,139.629C32.367,139.629 40.344,148.586 43.516,149.395C43.516,149.395 51.106,156.223 55.848,164.68C55.848,164.68 59.777,173.32 68.66,175.945C68.66,175.945 75.578,178.855 80.578,189.309C80.578,189.309 99.629,194.121 100.691,197.461C100.691,197.461 101.527,218.313 105.91,225.152" style="fill:rgb(254,255,255);fill-rule:nonzero;"/>
        </g>
        <g id="path321" transform="matrix(-1,0,0,1,363.105,0.234403)">
            <path d="M120.965,260.297C120.766,260.332 102.605,264.461 83.316,264.473C73.664,264.457 63.711,263.477 55.254,260.059L54.551,259.773L53.965,259.293C53.68,259.02 31.371,240.766 17.738,211.828C11.02,197.508 6.758,183.148 4.129,172.105C2.82,166.582 1.918,161.891 1.336,158.445C0.746,154.945 0.492,152.93 0.422,152.094L5.41,151.719L0.453,152.395C0.438,152.246 0.004,149.066 0,144.859C0.066,140.191 0.348,134.355 3.297,129.238L7.586,131.809L2.867,130.148C2.965,129.902 3.738,127.652 5.504,125.082C6.402,123.801 7.555,122.41 9.18,121.207C10.781,120.012 12.98,119.004 15.527,118.93L15.691,123.926L13.809,119.293C14.277,119.102 15.453,118.707 17.172,118.707C19.652,118.68 23.176,119.645 26.602,122.535C30.055,125.422 33.523,130.055 36.922,137.57L32.367,139.629L36.102,136.301L37.313,137.625C38.453,138.844 40.258,140.707 41.953,142.242L44.234,144.137L44.926,144.59L45.004,144.633L44.328,146.215L44.754,144.551L45.004,144.633L44.328,146.215L44.754,144.551L45.945,144.855L46.856,145.676C47.047,145.883 54.91,152.848 60.211,162.23L60.313,162.418L60.398,162.605L59.941,162.816L60.395,162.598L60.398,162.605L59.941,162.816L60.395,162.598C60.484,162.797 61.406,164.605 63.074,166.484C64.75,168.383 67.098,170.277 70.078,171.152L70.344,171.23L70.598,171.34C71.356,171.633 79.457,175.352 85.09,187.148L80.578,189.309L81.805,184.461C81.871,184.477 86.703,185.695 91.809,187.387C94.371,188.234 96.984,189.188 99.25,190.262C100.387,190.809 101.438,191.371 102.457,192.102C103.43,192.887 104.617,193.652 105.457,195.941L105.66,196.586L105.688,197.262C105.688,197.266 105.734,198.473 105.879,200.469C106.09,203.461 106.516,208.137 107.262,212.551C107.949,216.918 109.227,221.203 110.121,222.453L101.703,227.848C100.063,225.238 99.168,222.297 98.383,219.098C96.141,209.605 95.715,197.82 95.695,197.66L100.691,197.461L95.926,198.977L98.977,198.008L96.582,200.176L95.926,198.977L98.977,198.008L96.582,200.176L97.422,199.414L96.676,200.266L96.582,200.176L97.422,199.414L96.676,200.266C96.668,200.199 95.231,199.332 93.473,198.637C90.793,197.52 87.195,196.367 84.336,195.531C81.469,194.688 79.359,194.156 79.356,194.152L77.082,193.578L76.07,191.465C73.879,186.891 71.359,184.125 69.477,182.492C68.535,181.68 67.75,181.152 67.246,180.852L66.723,180.559L66.723,180.555L68.66,175.945L67.242,180.742C61.539,179.043 57.598,175.516 55.098,172.547C52.59,169.555 51.43,167.027 51.297,166.746L55.848,164.68L51.488,167.121C49.394,163.379 46.519,159.793 44.187,157.211C43.023,155.918 41.996,154.871 41.269,154.16L40.43,153.352L40.172,153.113L43.516,149.395L42.273,154.238C39.961,153.559 38.797,152.547 37.316,151.434C33.184,148.109 28.734,143.051 28.633,142.953L28.125,142.383L27.809,141.688C24.84,135.094 22.074,131.77 20.203,130.223C18.301,128.68 17.41,128.738 17.172,128.707L17.098,128.711L16.894,126.883L17.574,128.559L17.098,128.711L16.894,126.883L17.574,128.559L16.746,128.895L15.855,128.922L15.113,129.254C14.5,129.68 13.637,130.785 13.094,131.793L12.465,133.074L12.32,133.422L12.297,133.484L10.863,132.957L12.305,133.465L12.297,133.484L10.863,132.957L12.305,133.465L12.137,133.941L11.875,134.375C10.644,136.234 9.934,141.008 10,144.859C10,146.613 10.094,148.199 10.187,149.324L10.312,150.633L10.363,151.043L10.383,151.191L10.394,151.344C10.391,151.383 10.648,153.578 11.195,156.773C12.84,166.527 17.301,187.387 26.789,207.578L26.789,207.574C33.027,220.867 41.461,231.953 48.328,239.656C51.758,243.508 54.793,246.52 56.953,248.547C58.031,249.563 58.891,250.336 59.473,250.844L60.125,251.406L60.316,251.566L57.141,255.43L59.027,250.801C65.465,253.445 74.398,254.492 83.316,254.473C92.25,254.477 101.176,253.492 107.824,252.5C111.148,252.008 113.906,251.512 115.82,251.145C117.734,250.773 118.758,250.543 118.762,250.543L120.965,260.297" style="fill:rgb(40,81,88);fill-rule:nonzero;"/>
        </g>
        <g id="path42" transform="matrix(1,0,0,1,-0.63711,-0.560815)">
            <path d="M77.648,152.539C90.57,64.617 133.484,35.867 168.484,27.539C168.484,27.539 189.199,21.902 206.238,27.539C240.398,38.84 284.148,64.617 297.078,152.539" style="fill:rgb(102,103,104);fill-rule:nonzero;"/>
        </g>
        <g id="path44" transform="matrix(1,0,0,1,-0.63711,-0.560815)">
            <path d="M72.703,151.813C79.258,107.156 93.539,76.992 111.016,56.91C128.477,36.816 149.027,27.012 167.328,22.676L168.484,27.539L167.172,22.715C167.43,22.652 176.957,20.047 188.879,20.035C194.844,20.039 201.43,20.687 207.809,22.793C225.348,28.582 245.785,38.281 263.352,57.977C280.934,77.66 295.469,107.137 302.027,151.813L292.133,153.266C285.758,110.02 271.953,82.648 255.891,64.637C239.809,46.633 221.289,37.793 204.668,32.285C199.688,30.633 194.098,30.031 188.879,30.035C183.656,30.031 178.816,30.625 175.32,31.215C173.57,31.512 172.16,31.809 171.199,32.023L170.117,32.281L169.797,32.363L169.719,32.383L169.641,32.402C152.941,36.395 134.535,45.129 118.559,63.473C102.598,81.828 88.961,110 82.598,153.266L72.703,151.813" style="fill:rgb(40,81,88);fill-rule:nonzero;"/>
        </g>
        <g id="path46" transform="matrix(1,0,0,1,-0.63711,-0.560815)">
            <path d="M77.648,152.539C64.73,240.453 144.734,282.113 144.734,282.113C138.309,278.375 179.262,308.324 229.988,282.113C229.988,282.113 309.988,240.453 297.078,152.539" style="fill:rgb(102,103,104);fill-rule:nonzero;"/>
        </g>
        <g id="path48" transform="matrix(1,0,0,1,-0.63711,-0.560815)">
            <path d="M82.598,153.266C81.668,159.598 81.238,165.664 81.238,171.473C81.246,207.371 97.574,233.773 114.137,251.492C122.406,260.324 130.707,266.922 136.906,271.277C140.008,273.461 142.582,275.078 144.359,276.145L146.398,277.328L147.043,277.68L144.734,282.113L142.219,286.434L142.074,286.352L142.047,286.336L143.328,283.832L142.254,286.43L142.047,286.336L143.328,283.832L142.254,286.43L143.953,282.316L142.668,286.578L142.254,286.43L143.953,282.316L142.668,286.578L144.082,281.895L144.082,286.785C143.172,286.762 142.91,286.633 142.668,286.578L144.082,281.895L144.082,286.785L144.082,281.801L146.727,286.023C145.422,286.793 144.586,286.758 144.082,286.785L144.082,281.801L146.727,286.023L144.074,281.793L148.477,284.148L146.727,286.023L144.074,281.793L148.477,284.148L144.074,281.793L149.07,281.793L148.477,284.148L144.074,281.793L149.07,281.793L144.09,281.793L148.453,279.391C148.648,279.805 149.031,280.406 149.07,281.793L144.09,281.793L148.453,279.391L144.195,281.734L147.648,278.313L148.453,279.391L144.195,281.734L147.648,278.313L144.914,281.02L147.254,277.961L147.648,278.313L144.914,281.02L147.254,277.961L147.258,277.965C147.563,278.176 148.961,279.035 151.027,280.035C157.297,283.102 170.203,287.984 186.695,287.977C198.727,287.969 212.676,285.426 227.695,277.672L227.68,277.68L228.324,277.328C231.766,275.418 248.258,265.688 263.684,248.07C279.133,230.414 293.477,205.129 293.488,171.461C293.488,165.652 293.063,159.594 292.133,153.266L302.027,151.813C303.023,158.613 303.488,165.164 303.488,171.461C303.496,210.539 285.578,239.461 267.891,258.32C250.176,277.227 232.613,286.375 232.297,286.547L232.293,286.551L232.285,286.555C215.805,295.078 200.145,297.98 186.695,297.977C173.262,297.973 162.035,295.113 154.117,292.195C150.152,290.734 147.016,289.262 144.813,288.094C143.711,287.512 142.844,287.008 142.188,286.594L141.305,285.996L140.77,285.566L140.227,285L139.691,284.211C139.488,283.793 139.105,283.184 139.07,281.793L139.66,279.43C140.32,278.16 141.516,277.379 142.313,277.105L144.082,276.785L145.469,276.977L146.602,277.438L147.25,277.793L142.426,286.547C142.109,286.375 124.551,277.227 106.836,258.324C89.148,239.465 71.231,210.547 71.238,171.473C71.238,165.172 71.703,158.617 72.703,151.813L82.598,153.266" style="fill:rgb(40,81,88);fill-rule:nonzero;"/>
        </g>
        <g id="path54" transform="matrix(1,0,0,1,-0.63711,-0.560815)">
            <path d="M148.406,236.254L128.406,261.672" style="fill:rgb(39,135,82);fill-rule:nonzero;"/>
        </g>
        <g id="path56" transform="matrix(1,0,0,1,-0.63711,-0.560815)">
            <path d="M217.363,235.207L155.695,235.207L137.727,187.156L159.238,144.758L211.172,144.758L231.738,188.32L217.363,235.207ZM209.969,225.207L221.039,189.09L204.832,154.758L165.379,154.758L148.633,187.766L162.633,225.207L209.969,225.207" style="fill:rgb(151,181,183);fill-rule:nonzero;"/>
        </g>
        <g id="path58" transform="matrix(1,0,0,1,-0.63711,-0.560815)">
            <path d="M186.555,284.359C157.816,284.355 137.727,267.504 137.727,267.504L154.027,242.922L218.438,242.922L234.727,267.504C217.453,280.148 200.926,284.359 186.555,284.359L186.555,284.359ZM186.559,274.359C198.25,274.359 209.746,271.102 220.844,264.66L213.066,252.922L159.395,252.922L151.574,264.719C159.023,268.938 171.512,274.359 186.559,274.359" style="fill:rgb(151,181,183);fill-rule:nonzero;"/>
        </g>
        <g id="path60" transform="matrix(1,0,0,1,-0.63711,-0.560815)">
            <path d="M210.887,138.176L160.195,138.176C160.195,138.176 148.121,88.785 181.637,88.785L182.68,88.801C217.488,89.836 210.887,138.176 210.887,138.176ZM201.398,128.176C201.281,120.352 199.879,110.133 194.77,104.129C191.813,100.652 187.879,98.961 182.383,98.797L181.637,98.785C175.758,98.785 173.387,100.934 172.117,102.547C167.785,108.043 167.512,119.188 168.578,128.176L201.398,128.176" style="fill:rgb(151,181,183);fill-rule:nonzero;"/>
        </g>
        <g id="path62" transform="matrix(1,0,0,1,-0.63711,-0.560815)">
            <path d="M128.406,261.672C77.992,215.84 83.406,180.84 83.406,180.84L128.613,193.137L148.406,236.254L128.406,261.672L128.406,261.672ZM127.355,246.836L136.77,234.871L121.477,201.559L94.555,194.234C97.215,205.605 105.016,224.336 127.355,246.836" style="fill:rgb(151,181,183);fill-rule:nonzero;"/>
        </g>
        <g id="path64" transform="matrix(1,0,0,1,-0.63711,-0.560815)">
            <path d="M243.137,261.672L223.137,236.254L242.93,193.137L288.137,180.84C288.137,180.84 293.551,215.84 243.137,261.672ZM244.188,246.832C266.414,224.422 274.227,205.656 276.926,194.254L250.066,201.559L234.773,234.871L244.188,246.832" style="fill:rgb(151,181,183);fill-rule:nonzero;"/>
        </g>
        <g id="path66" transform="matrix(1,0,0,1,-0.63711,-0.560815)">
            <path d="M125.488,173.762L84.227,169.426C78.176,152.18 98.738,115.012 98.738,115.012L128.195,110.73C130.754,110.527 132.98,110.441 134.922,110.441C148.004,110.441 148.059,114.426 148.059,114.426C144.797,123.23 150.695,138.762 150.695,138.762L135.758,165.492L125.488,173.762L125.488,173.762ZM122.43,163.383L127.973,158.918L139.816,137.73C138.531,133.418 137.02,126.934 137.094,120.492L134.922,120.441C133.289,120.441 131.426,120.516 129.301,120.676L105.215,124.176C99.629,135.289 93.703,150.625 93.109,160.301L122.43,163.383" style="fill:rgb(151,181,183);fill-rule:nonzero;"/>
        </g>
        <g id="path68" transform="matrix(1,0,0,1,-0.63711,-0.560815)">
            <path d="M125.844,102.344C111.832,102.344 98.738,100.098 98.738,100.098C98.738,100.098 106.34,87.441 124.629,64.129C142.918,40.82 170.984,36.262 170.984,36.262C178.566,53.77 175.566,66.68 175.566,66.68L152.199,97.637C145.656,101.27 135.531,102.344 125.844,102.344L125.844,102.344ZM125.844,92.344C136.703,92.344 142.613,90.902 145.68,89.676L166.043,62.695C166.273,60.117 166.359,54.992 164.605,48.289C156.121,51.168 142.566,57.465 132.496,70.305C125.566,79.137 120.195,86.418 116.23,92.004C119.266,92.207 122.535,92.344 125.844,92.344" style="fill:rgb(151,181,183);fill-rule:nonzero;"/>
        </g>
        <g id="path70" transform="matrix(1,0,0,1,-0.63711,-0.560815)">
            <path d="M244.313,102.344C234.625,102.344 224.496,101.27 217.957,97.637L194.594,66.68C194.594,66.68 191.59,53.769 199.172,36.262C199.172,36.262 227.238,40.82 245.527,64.129C263.816,87.441 271.418,100.098 271.418,100.098C271.418,100.098 258.324,102.344 244.313,102.344L244.313,102.344ZM244.313,92.344C247.621,92.344 250.891,92.207 253.926,92.004C249.961,86.418 244.59,79.137 237.66,70.305C227.684,57.586 214.059,51.246 205.539,48.328C203.785,55.047 203.879,60.164 204.105,62.684L224.477,89.676C227.543,90.902 233.453,92.344 244.313,92.344" style="fill:rgb(151,181,183);fill-rule:nonzero;"/>
        </g>
        <g id="path72" transform="matrix(1,0,0,1,-0.63711,-0.560815)">
            <path d="M241.113,179.172L223.191,142.246C226.73,135.531 223.137,116.395 223.137,116.395C223.137,116.395 224.242,111.07 233.82,109.656C235.938,109.34 239.063,109.219 242.641,109.219C255.242,109.219 273.492,110.73 273.492,110.73C291.941,146.574 284.863,170.012 284.863,170.012L241.113,179.172L241.113,179.172ZM246.699,167.781L276.09,161.629C276.648,154.188 276.012,139.715 267.027,120.277C260.754,119.84 250.473,119.219 242.641,119.219C238.168,119.219 236.109,119.426 235.281,119.547L233.828,119.836C234.691,126.043 235.363,134.621 233.918,141.441L246.699,167.781" style="fill:rgb(151,181,183);fill-rule:nonzero;"/>
        </g>
    </g>
</svg>
